<?xml version="1.0" encoding="UTF-8" standalone="no"?>
<svg
   xmlns:dc="http://purl.org/dc/elements/1.1/"
   xmlns:cc="http://creativecommons.org/ns#"
   xmlns:rdf="http://www.w3.org/1999/02/22-rdf-syntax-ns#"
   xmlns:svg="http://www.w3.org/2000/svg"
   xmlns="http://www.w3.org/2000/svg"
   xmlns:xlink="http://www.w3.org/1999/xlink"
   xmlns:sodipodi="http://sodipodi.sourceforge.net/DTD/sodipodi-0.dtd"
   xmlns:inkscape="http://www.inkscape.org/namespaces/inkscape"
   id="svg4569"
   height="128"
   width="128"
   version="1.0"
   inkscape:version="0.91 r13725"
   sodipodi:docname="dippi2.svg">
  <sodipodi:namedview
     pagecolor="#ffffff"
     bordercolor="#666666"
     borderopacity="1"
     objecttolerance="10"
     gridtolerance="10"
     guidetolerance="10"
     inkscape:pageopacity="0"
     inkscape:pageshadow="2"
     inkscape:window-width="1920"
     inkscape:window-height="1017"
     id="namedview45"
     showgrid="true"
     inkscape:zoom="2.8284271"
     inkscape:cx="30.069133"
     inkscape:cy="69.241637"
     inkscape:window-x="0"
     inkscape:window-y="30"
     inkscape:window-maximized="1"
     inkscape:current-layer="svg4569">
    <inkscape:grid
       type="xygrid"
       id="grid4271"
       empspacing="4" />
  </sodipodi:namedview>
  <metadata
     id="metadata46">
    <rdf:RDF>
      <cc:Work
         rdf:about="">
        <dc:format>image/svg+xml</dc:format>
        <dc:type
           rdf:resource="http://purl.org/dc/dcmitype/StillImage" />
        <dc:title></dc:title>
      </cc:Work>
    </rdf:RDF>
  </metadata>
  <defs
     id="defs4571">
    <linearGradient
       id="linearGradient4306">
      <stop
         id="stop4308"
         style="stop-color:#ffffff;stop-opacity:1"
         offset="0" />
      <stop
         id="stop4310"
         style="stop-color:#ffffff;stop-opacity:0"
         offset="1" />
    </linearGradient>
    <linearGradient
       id="linearGradient3912">
      <stop
         offset="0"
         style="stop-color:#273445;stop-opacity:1"
         id="stop3914" />
      <stop
         offset="0.35046947"
         style="stop-color:#667885;stop-opacity:1"
         id="stop3916" />
      <stop
         offset="0.49417919"
         style="stop-color:#95a3ab;stop-opacity:1"
         id="stop3918" />
      <stop
         offset="0.58907253"
         style="stop-color:#667885;stop-opacity:1"
         id="stop3920" />
      <stop
         offset="1"
         style="stop-color:#485a6c;stop-opacity:1"
         id="stop3922" />
    </linearGradient>
    <linearGradient
       id="linearGradient6592-2-7">
      <stop
         offset="0"
         style="stop-color:#ffffff;stop-opacity:0.27450982"
         id="stop6594-0-2" />
      <stop
         offset="1"
         style="stop-color:#ffffff;stop-opacity:0"
         id="stop6596-2-5" />
    </linearGradient>
    <linearGradient
       id="linearGradient10691-1">
      <stop
         offset="0"
         style="stop-color:#000000;stop-opacity:1"
         id="stop10693-3" />
      <stop
         offset="1"
         style="stop-color:#000000;stop-opacity:0"
         id="stop10695-1" />
    </linearGradient>
    <linearGradient
       gradientTransform="matrix(2.6746618,0,0,2.5459707,-893.97886,-122.09114)"
       gradientUnits="userSpaceOnUse"
       xlink:href="#linearGradient3912"
       id="linearGradient3221"
       y2="94.396416"
       x2="361.10583"
       y1="87.050117"
       x1="361.10583" />
    <radialGradient
       gradientTransform="matrix(5.2570306,0,0,1.1067431,28.763637,34.526312)"
       gradientUnits="userSpaceOnUse"
       xlink:href="#linearGradient10691-1"
       id="radialGradient3226"
       fy="73.615715"
       fx="6.702713"
       r="7.228416"
       cy="73.615715"
       cx="6.702713" />
    <linearGradient
       id="linearGradient4084">
      <stop
         offset="0"
         style="stop-color:#ffffff;stop-opacity:1"
         id="stop4086" />
      <stop
         offset="0.01596775"
         style="stop-color:#ffffff;stop-opacity:0.23529412"
         id="stop4088" />
      <stop
         offset="0.99257565"
         style="stop-color:#ffffff;stop-opacity:0.15686275"
         id="stop4090" />
      <stop
         offset="1"
         style="stop-color:#ffffff;stop-opacity:0.39215687"
         id="stop4092" />
    </linearGradient>
    <linearGradient
       id="outerBackgroundGradient-5-0">
      <stop
         id="stop3864-8-6-4"
         offset="0"
         style="stop-color:#d4d4d4;stop-opacity:1" />
      <stop
         id="stop3866-9-1-86"
         offset="1"
         style="stop-color:#fafafa;stop-opacity:1" />
    </linearGradient>
    <linearGradient
       xlink:href="#linearGradient6592-2-7"
       id="linearGradient3141"
       gradientUnits="userSpaceOnUse"
       gradientTransform="matrix(3.1000007,0,0,3.136008,-1.1000124,35.088071)"
       x1="10"
       y1="-3"
       x2="20"
       y2="12" />
    <linearGradient
       xlink:href="#linearGradient4084"
       id="linearGradient3144"
       gradientUnits="userSpaceOnUse"
       gradientTransform="matrix(3.3243244,0,0,2.3243242,-15.783808,-2.2837566)"
       x1="23.99999"
       y1="5.7531762"
       x2="23.99999"
       y2="42.121033" />
    <linearGradient
       xlink:href="#outerBackgroundGradient-5-0"
       id="linearGradient3148"
       gradientUnits="userSpaceOnUse"
       gradientTransform="matrix(2.8500006,0,0,3.2608694,4.150005,42.086958)"
       x1="15"
       y1="24.618645"
       x2="15"
       y2="2" />
    <linearGradient
       id="linearGradient4054-5">
      <stop
         offset="0"
         style="stop-color:#ffffff;stop-opacity:1"
         id="stop4056-0" />
      <stop
         offset="0.01719457"
         style="stop-color:#ffffff;stop-opacity:0.23529412"
         id="stop4058-4" />
      <stop
         offset="1"
         style="stop-color:#ffffff;stop-opacity:0.15686275"
         id="stop4060-4" />
      <stop
         offset="1"
         style="stop-color:#ffffff;stop-opacity:0.39215687"
         id="stop4062-0" />
    </linearGradient>
    <linearGradient
       xlink:href="#linearGradient4054-5"
       id="linearGradient3152-7"
       gradientUnits="userSpaceOnUse"
       gradientTransform="matrix(1.2162163,0,0,0.83783786,2.6663586,14.977385)"
       x1="47.546879"
       y1="121.84093"
       x2="47.546879"
       y2="99.079079" />
    <linearGradient
       x1="185.25845"
       y1="25.016096"
       x2="172.44084"
       y2="40.298641"
       id="linearGradient3289"
       xlink:href="#linearGradient4306"
       gradientUnits="userSpaceOnUse"
       gradientTransform="matrix(-6.1822509,0,0,4.0672708,1210.0762,-54.76382)" />
    <linearGradient
       x1="182"
       y1="33"
       x2="182"
       y2="24.519934"
       id="linearGradient3286"
       xlink:href="#linearGradient6592-2-7"
       gradientUnits="userSpaceOnUse"
       gradientTransform="matrix(-4.6206499,0,0,3.0410545,927.73637,-22.273846)" />
  </defs>
  <g
     id="g4268">
    <g
       id="g4215">
      <path
         inkscape:connector-curvature="0"
         style="display:inline;overflow:visible;visibility:visible;opacity:0.3;fill:url(#radialGradient3226);fill-opacity:1;fill-rule:nonzero;stroke:none;stroke-width:0.80000001;marker:none"
         id="path2589"
         d="m 102,116 c 0,4.41828 -17.013179,8 -38.000002,8 C 43.013178,124 26,120.41828 26,116 26,111.58172 43.013178,108 63.999998,108 84.986821,108 102,111.58172 102,116 l 0,0 z" />
      <path
         inkscape:connector-curvature="0"
         style="display:inline;overflow:visible;visibility:visible;fill:url(#linearGradient3221);fill-opacity:1;fill-rule:nonzero;stroke:none;stroke-width:0.99827462;stroke-linecap:round;stroke-linejoin:round;stroke-miterlimit:4;stroke-dasharray:none;stroke-dashoffset:0.5;stroke-opacity:1;marker:none;enable-background:new"
         id="rect1789"
         d="m 47.5,97.499139 c 0,0 0.397503,10.838601 -1.50061,13.364911 -1.898112,2.52633 -5.675011,4.13662 -5.675011,4.13662 -2.423623,0.2654 -2.443672,3.5002 0,3.5002 l 47.351051,0 c 2.443672,0 2.424131,-3.23819 0,-3.5002 0,0 -3.776735,-1.6103 -5.674819,-4.13662 C 80.102525,108.33775 80.5,97.499139 80.5,97.499139 l -32.983056,0 -0.01694,0 z" />
      <path
         inkscape:connector-curvature="0"
         style="color:#000000;clip-rule:nonzero;display:inline;overflow:visible;visibility:visible;opacity:0.4;isolation:auto;mix-blend-mode:normal;color-interpolation:sRGB;color-interpolation-filters:linearRGB;solid-color:#000000;solid-opacity:1;fill:none;fill-opacity:1;fill-rule:nonzero;stroke:#000000;stroke-width:1;stroke-linecap:round;stroke-linejoin:round;stroke-miterlimit:4;stroke-dasharray:none;stroke-dashoffset:0.5;stroke-opacity:1;marker:none;color-rendering:auto;image-rendering:auto;shape-rendering:auto;text-rendering:auto;enable-background:new"
         id="rect1789-8"
         d="m 47.5,97.499139 c 0,0 0.397503,10.838601 -1.50061,13.364911 -1.898112,2.52633 -5.675011,4.13662 -5.675011,4.13662 -2.423623,0.2654 -2.443672,3.5002 0,3.5002 l 47.351051,0 c 2.443672,0 2.424131,-3.23819 0,-3.5002 0,0 -3.776735,-1.6103 -5.674819,-4.13662 C 80.102525,108.33775 80.5,97.499139 80.5,97.499139 l -32.983056,0 -0.01694,0 z" />
      <rect
         style="fill:#1a1a1a;fill-opacity:1;stroke:#000000;stroke-width:1.00023937;stroke-linecap:round;stroke-linejoin:round;stroke-miterlimit:4;stroke-dasharray:none;stroke-dashoffset:0.5;stroke-opacity:1"
         id="rect2722-7"
         y="9.500124"
         x="1.5001197"
         ry="2.5"
         rx="2.5"
         height="87.999756"
         width="124.99976" />
      <path
         inkscape:connector-curvature="0"
         id="rect2722-0"
         d="m 7.000002,16.000002 113.999998,0 0,75 -113.999998,0 z"
         style="display:inline;fill:url(#linearGradient3148);fill-opacity:1;stroke:none" />
      <rect
         style="opacity:0.2;fill:none;stroke:url(#linearGradient3144);stroke-width:0.99999994;stroke-linecap:round;stroke-linejoin:round;stroke-miterlimit:4;stroke-dasharray:none;stroke-dashoffset:0;stroke-opacity:1"
         id="rect6741"
         y="10.500002"
         x="2.5000052"
         ry="1.5"
         rx="1.5"
         height="86"
         width="122.99999" />
      <path
         inkscape:connector-curvature="0"
         id="rect2722-0-3"
         d="m 7,16 0,75 114,0 0,-75 -114,0 z m 1,1 112,0 0,73 L 8,90 8,17 Z"
         style="color:#000000;clip-rule:nonzero;display:inline;overflow:visible;visibility:visible;opacity:0.1;isolation:auto;mix-blend-mode:normal;color-interpolation:sRGB;color-interpolation-filters:linearRGB;solid-color:#000000;solid-opacity:1;fill:#000000;fill-opacity:1;fill-rule:nonzero;stroke:none;stroke-width:1;stroke-linecap:butt;stroke-linejoin:miter;stroke-miterlimit:4;stroke-dasharray:none;stroke-dashoffset:0;stroke-opacity:1;color-rendering:auto;image-rendering:auto;shape-rendering:auto;text-rendering:auto;enable-background:accumulate" />
      <path
         inkscape:connector-curvature="0"
         id="path4419"
         d="m 48.478516,98.486328 c 0.02065,0.733663 0.08406,2.260412 -0.03125,4.792972 -0.06997,1.53666 -0.199201,3.15889 -0.439454,4.59375 -0.240251,1.43485 -0.530844,2.66645 -1.21875,3.58203 -2.154724,2.86787 -6.078125,4.45312 -6.078124,4.45312 -0.08905,0.0376 -0.183159,0.062 -0.279297,0.0723 -0.78107,0.0855 -0.944221,0.50444 -0.945313,0.87109 -5.46e-4,0.18333 0.05961,0.3357 0.167969,0.44532 0.108361,0.1096 0.276609,0.21679 0.669922,0.21679 l 47.351562,0 c 0.393085,0 0.561397,-0.10695 0.669922,-0.21679 0.108525,-0.10986 0.170455,-0.26169 0.169922,-0.44532 -0.0011,-0.36726 -0.164558,-0.7867 -0.945313,-0.87109 -0.0968,-0.0101 -0.191578,-0.0344 -0.28125,-0.0723 0,0 -3.923422,-1.58525 -6.078124,-4.45312 -0.687899,-0.91557 -0.9785,-2.14718 -1.21875,-3.58203 -0.240252,-1.43485 -0.369484,-3.05709 -0.439454,-4.59375 -0.115315,-2.53256 -0.0519,-4.059308 -0.03125,-4.792972"
         style="color:#000000;clip-rule:nonzero;display:inline;overflow:visible;visibility:visible;opacity:0.3;isolation:auto;mix-blend-mode:normal;color-interpolation:sRGB;color-interpolation-filters:linearRGB;solid-color:#000000;solid-opacity:1;fill:none;fill-opacity:1;fill-rule:nonzero;stroke:url(#linearGradient3152-7);stroke-width:1;stroke-linecap:round;stroke-linejoin:round;stroke-miterlimit:4;stroke-dasharray:none;stroke-dashoffset:0;stroke-opacity:1;marker:none;color-rendering:auto;image-rendering:auto;shape-rendering:auto;text-rendering:auto;enable-background:accumulate" />
    </g>
    <g
       id="g4258">
      <path
         inkscape:connector-curvature="0"
         style="color:#000000;display:inline;overflow:visible;visibility:visible;fill:#c6262e;fill-opacity:1;fill-rule:evenodd;stroke:none;stroke-width:0.99999994;stroke-linecap:butt;stroke-linejoin:round;stroke-miterlimit:4;stroke-dasharray:none;stroke-dashoffset:0;stroke-opacity:1;marker:none;enable-background:accumulate;opacity:0.9"
         id="path4238"
         d="M 120.5,16.499957 7.4998824,90.5 120.5,90.5 Z m -23,40.50005 0,18.499995 -28,0 z"
         sodipodi:nodetypes="cccccccc" />
      <path
         inkscape:connector-curvature="0"
         style="opacity:0.5;fill:none;stroke:url(#linearGradient3289);stroke-width:0.99999958px;stroke-linecap:butt;stroke-linejoin:miter;stroke-opacity:1"
         id="path3981"
         d="M 119.5,18.348844 119.5,89.5 10.84722,89.5 Z"
         sodipodi:nodetypes="cccc" />
      <path
         sodipodi:nodetypes="ccc"
         inkscape:connector-curvature="0"
         style="opacity:0.5;fill:none;stroke:url(#linearGradient3286);stroke-width:0.9999994px;stroke-linecap:butt;stroke-linejoin:miter;stroke-opacity:1"
         id="path3981-5"
         d="m 98.5,56.5 0,20 -29.5,0" />
      <path
         sodipodi:nodetypes="cccccccc"
         d="M 120.5,16.499957 7.4998824,90.5 120.5,90.5 Z m -23,40.50005 0,18.499995 -28,0 z"
         id="path4269"
         style="color:#000000;display:inline;overflow:visible;visibility:visible;fill:none;fill-opacity:0.58823529;fill-rule:evenodd;stroke:#7a0000;stroke-width:0.99999994;stroke-linecap:butt;stroke-linejoin:round;stroke-miterlimit:4;stroke-dasharray:none;stroke-dashoffset:0;stroke-opacity:1;marker:none;enable-background:accumulate"
         inkscape:connector-curvature="0" />
      <path
         style="color:#000000;clip-rule:nonzero;display:inline;overflow:visible;visibility:visible;opacity:0.3;isolation:auto;mix-blend-mode:normal;color-interpolation:sRGB;color-interpolation-filters:linearRGB;solid-color:#000000;solid-opacity:1;fill:#000000;fill-opacity:1;fill-rule:nonzero;stroke:none;stroke-width:1;stroke-linecap:round;stroke-linejoin:round;stroke-miterlimit:4;stroke-dasharray:none;stroke-dashoffset:0;stroke-opacity:1;marker:none;color-rendering:auto;image-rendering:auto;shape-rendering:auto;text-rendering:auto;enable-background:accumulate"
         d="M 15 87 L 15 90 L 16 90 L 16 87 L 15 87 z M 20 87 L 20 90 L 21 90 L 21 87 L 20 87 z M 25 87 L 25 90 L 26 90 L 26 87 L 25 87 z M 30 87 L 30 90 L 31 90 L 31 87 L 30 87 z M 35 87 L 35 90 L 36 90 L 36 87 L 35 87 z M 40 87 L 40 90 L 41 90 L 41 87 L 40 87 z M 45 87 L 45 90 L 46 90 L 46 87 L 45 87 z M 50 87 L 50 90 L 51 90 L 51 87 L 50 87 z M 55 87 L 55 90 L 56 90 L 56 87 L 55 87 z M 60 87 L 60 90 L 61 90 L 61 87 L 60 87 z M 65 87 L 65 90 L 66 90 L 66 87 L 65 87 z M 70 87 L 70 90 L 71 90 L 71 87 L 70 87 z M 75 87 L 75 90 L 76 90 L 76 87 L 75 87 z M 80 87 L 80 90 L 81 90 L 81 87 L 80 87 z M 85 87 L 85 90 L 86 90 L 86 87 L 85 87 z M 90 87 L 90 90 L 91 90 L 91 87 L 90 87 z M 95 87 L 95 90 L 96 90 L 96 87 L 95 87 z M 100 87 L 100 90 L 101 90 L 101 87 L 100 87 z M 105 87 L 105 90 L 106 90 L 106 87 L 105 87 z M 110 87 L 110 90 L 111 90 L 111 87 L 110 87 z M 115 87 L 115 90 L 116 90 L 116 87 L 115 87 z "
         id="rect4273" />
      <path
         style="color:#000000;clip-rule:nonzero;display:inline;overflow:visible;visibility:visible;opacity:0.3;isolation:auto;mix-blend-mode:normal;color-interpolation:sRGB;color-interpolation-filters:linearRGB;solid-color:#000000;solid-opacity:1;fill:#000000;fill-opacity:1;fill-rule:nonzero;stroke:none;stroke-width:1;stroke-linecap:round;stroke-linejoin:round;stroke-miterlimit:4;stroke-dasharray:none;stroke-dashoffset:0;stroke-opacity:1;marker:none;color-rendering:auto;image-rendering:auto;shape-rendering:auto;text-rendering:auto;enable-background:accumulate"
         d="M 117 20 L 117 21 L 120 21 L 120 20 L 117 20 z M 117 25 L 117 26 L 120 26 L 120 25 L 117 25 z M 117 30 L 117 31 L 120 31 L 120 30 L 117 30 z M 117 35 L 117 36 L 120 36 L 120 35 L 117 35 z M 117 40 L 117 41 L 120 41 L 120 40 L 117 40 z M 117 45 L 117 46 L 120 46 L 120 45 L 117 45 z M 117 50 L 117 51 L 120 51 L 120 50 L 117 50 z M 117 55 L 117 56 L 120 56 L 120 55 L 117 55 z M 117 60 L 117 61 L 120 61 L 120 60 L 117 60 z M 117 65 L 117 66 L 120 66 L 120 65 L 117 65 z M 117 70 L 117 71 L 120 71 L 120 70 L 117 70 z M 117 75 L 117 76 L 120 76 L 120 75 L 117 75 z M 117 80 L 117 81 L 120 81 L 120 80 L 117 80 z M 117 85 L 117 86 L 120 86 L 120 85 L 117 85 z "
         id="path4300" />
      <path
         style="color:#000000;clip-rule:nonzero;display:inline;overflow:visible;visibility:visible;opacity:0.3;isolation:auto;mix-blend-mode:normal;color-interpolation:sRGB;color-interpolation-filters:linearRGB;solid-color:#000000;solid-opacity:1;fill:#ffffff;fill-opacity:1;fill-rule:nonzero;stroke:none;stroke-width:1;stroke-linecap:round;stroke-linejoin:round;stroke-miterlimit:4;stroke-dasharray:none;stroke-dashoffset:0;stroke-opacity:1;marker:none;color-rendering:auto;image-rendering:auto;shape-rendering:auto;text-rendering:auto;enable-background:accumulate"
         d="M 117 21 L 117 22 L 120 22 L 120 21 L 117 21 z M 117 26 L 117 27 L 120 27 L 120 26 L 117 26 z M 117 31 L 117 32 L 120 32 L 120 31 L 117 31 z M 117 36 L 117 37 L 120 37 L 120 36 L 117 36 z M 117 41 L 117 42 L 120 42 L 120 41 L 117 41 z M 117 46 L 117 47 L 120 47 L 120 46 L 117 46 z M 117 51 L 117 52 L 120 52 L 120 51 L 117 51 z M 117 56 L 117 57 L 120 57 L 120 56 L 117 56 z M 117 61 L 117 62 L 120 62 L 120 61 L 117 61 z M 117 66 L 117 67 L 120 67 L 120 66 L 117 66 z M 117 71 L 117 72 L 120 72 L 120 71 L 117 71 z M 117 76 L 117 77 L 120 77 L 120 76 L 117 76 z M 117 81 L 117 82 L 120 82 L 120 81 L 117 81 z M 117 86 L 117 87 L 120 87 L 120 86 L 117 86 z "
         id="path4302" />
      <path
         style="color:#000000;clip-rule:nonzero;display:inline;overflow:visible;visibility:visible;opacity:0.3;isolation:auto;mix-blend-mode:normal;color-interpolation:sRGB;color-interpolation-filters:linearRGB;solid-color:#000000;solid-opacity:1;fill:#ffffff;fill-opacity:1;fill-rule:nonzero;stroke:none;stroke-width:1;stroke-linecap:round;stroke-linejoin:round;stroke-miterlimit:4;stroke-dasharray:none;stroke-dashoffset:0;stroke-opacity:1;marker:none;color-rendering:auto;image-rendering:auto;shape-rendering:auto;text-rendering:auto;enable-background:accumulate"
         d="M 16 87 L 16 90 L 17 90 L 17 87 L 16 87 z M 21 87 L 21 90 L 22 90 L 22 87 L 21 87 z M 26 87 L 26 90 L 27 90 L 27 87 L 26 87 z M 31 87 L 31 90 L 32 90 L 32 87 L 31 87 z M 36 87 L 36 90 L 37 90 L 37 87 L 36 87 z M 41 87 L 41 90 L 42 90 L 42 87 L 41 87 z M 46 87 L 46 90 L 47 90 L 47 87 L 46 87 z M 51 87 L 51 90 L 52 90 L 52 87 L 51 87 z M 56 87 L 56 90 L 57 90 L 57 87 L 56 87 z M 61 87 L 61 90 L 62 90 L 62 87 L 61 87 z M 66 87 L 66 90 L 67 90 L 67 87 L 66 87 z M 71 87 L 71 90 L 72 90 L 72 87 L 71 87 z M 76 87 L 76 90 L 77 90 L 77 87 L 76 87 z M 81 87 L 81 90 L 82 90 L 82 87 L 81 87 z M 86 87 L 86 90 L 87 90 L 87 87 L 86 87 z M 91 87 L 91 90 L 92 90 L 92 87 L 91 87 z M 96 87 L 96 90 L 97 90 L 97 87 L 96 87 z M 101 87 L 101 90 L 102 90 L 102 87 L 101 87 z M 106 87 L 106 90 L 107 90 L 107 87 L 106 87 z M 111 87 L 111 90 L 112 90 L 112 87 L 111 87 z M 116 87 L 116 90 L 117 90 L 117 87 L 116 87 z "
         id="path4304" />
    </g>
  </g>
</svg>
