<?xml version="1.0" encoding="UTF-8" standalone="no"?>
<svg
   xmlns:dc="http://purl.org/dc/elements/1.1/"
   xmlns:cc="http://creativecommons.org/ns#"
   xmlns:rdf="http://www.w3.org/1999/02/22-rdf-syntax-ns#"
   xmlns:svg="http://www.w3.org/2000/svg"
   xmlns="http://www.w3.org/2000/svg"
   xmlns:xlink="http://www.w3.org/1999/xlink"
   xmlns:sodipodi="http://sodipodi.sourceforge.net/DTD/sodipodi-0.dtd"
   xmlns:inkscape="http://www.inkscape.org/namespaces/inkscape"
   version="1.1"
   width="32"
   height="32"
   id="svg4032"
   inkscape:version="0.91 r13725"
   sodipodi:docname="com.github.cassidyjames.dippi.svg">
  <sodipodi:namedview
     pagecolor="#ffffff"
     bordercolor="#666666"
     borderopacity="1"
     objecttolerance="10"
     gridtolerance="10"
     guidetolerance="10"
     inkscape:pageopacity="0"
     inkscape:pageshadow="2"
     inkscape:window-width="1920"
     inkscape:window-height="1017"
     id="namedview75"
     showgrid="true"
     inkscape:zoom="11.313708"
     inkscape:cx="15.451963"
     inkscape:cy="3.6984662"
     inkscape:window-x="0"
     inkscape:window-y="30"
     inkscape:window-maximized="1"
     inkscape:current-layer="svg4032">
    <inkscape:grid
       type="xygrid"
       id="grid4235"
       empspacing="4" />
  </sodipodi:namedview>
  <metadata
     id="metadata41">
    <rdf:RDF>
      <cc:Work
         rdf:about="">
        <dc:format>image/svg+xml</dc:format>
        <dc:type
           rdf:resource="http://purl.org/dc/dcmitype/StillImage" />
        <dc:title></dc:title>
      </cc:Work>
    </rdf:RDF>
  </metadata>
  <defs
     id="defs4034">
    <linearGradient
       id="linearGradient4293">
      <stop
         id="stop4295"
         style="stop-color:#ffffff;stop-opacity:1"
         offset="0" />
      <stop
         id="stop4297"
         style="stop-color:#ffffff;stop-opacity:0.23529412"
         offset="0.03432899" />
      <stop
         id="stop4299"
         style="stop-color:#ffffff;stop-opacity:0.15686275"
         offset="0.96892834" />
      <stop
         id="stop4301"
         style="stop-color:#ffffff;stop-opacity:0.39215687"
         offset="1" />
    </linearGradient>
    <linearGradient
       id="linearGradient3223">
      <stop
         offset="0"
         style="stop-color:#ffffff;stop-opacity:1"
         id="stop3225" />
      <stop
         offset="0.01500674"
         style="stop-color:#ffffff;stop-opacity:0.23529412"
         id="stop3227" />
      <stop
         offset="0.99559212"
         style="stop-color:#ffffff;stop-opacity:0.15686275"
         id="stop3229" />
      <stop
         offset="1"
         style="stop-color:#ffffff;stop-opacity:0.39215687"
         id="stop3231" />
    </linearGradient>
    <linearGradient
       id="linearGradient3178">
      <stop
         id="stop3180"
         style="stop-color:#273445;stop-opacity:1"
         offset="0" />
      <stop
         id="stop3184"
         style="stop-color:#95a3ab;stop-opacity:1"
         offset="0.24005625" />
      <stop
         id="stop3186"
         style="stop-color:#667885;stop-opacity:1"
         offset="0.33494958" />
      <stop
         id="stop3188"
         style="stop-color:#485a6c;stop-opacity:1"
         offset="1" />
    </linearGradient>
    <linearGradient
       id="linearGradient10691-1">
      <stop
         id="stop10693-3"
         style="stop-color:#000000;stop-opacity:1"
         offset="0" />
      <stop
         id="stop10695-1"
         style="stop-color:#000000;stop-opacity:0"
         offset="1" />
    </linearGradient>
    <linearGradient
       id="linearGradient3924-1">
      <stop
         id="stop3926-3"
         style="stop-color:#ffffff;stop-opacity:1"
         offset="0" />
      <stop
         id="stop3928-91"
         style="stop-color:#ffffff;stop-opacity:0.23529412"
         offset="0.06316455" />
      <stop
         id="stop3930-6"
         style="stop-color:#ffffff;stop-opacity:0.15686275"
         offset="0.95056331" />
      <stop
         id="stop3932-6"
         style="stop-color:#ffffff;stop-opacity:0.39215687"
         offset="1" />
    </linearGradient>
    <linearGradient
       id="outerBackgroundGradient-5-0">
      <stop
         id="stop3864-8-6-4"
         offset="0"
         style="stop-color:#261e2b;stop-opacity:1;" />
      <stop
         id="stop3866-9-1-86"
         offset="1"
         style="stop-color:#352f39;stop-opacity:1;" />
    </linearGradient>
    <linearGradient
       id="linearGradient3880">
      <stop
         id="stop3883"
         offset="0"
         style="stop-color:#ffffff;stop-opacity:1;" />
      <stop
         id="stop3885"
         offset="1"
         style="stop-color:#ffffff;stop-opacity:0;" />
    </linearGradient>
    <linearGradient
       id="linearGradient10691-1-8">
      <stop
         offset="0"
         style="stop-color:#000000;stop-opacity:1"
         id="stop10693-3-7" />
      <stop
         offset="1"
         style="stop-color:#000000;stop-opacity:0"
         id="stop10695-1-6" />
    </linearGradient>
    <linearGradient
       id="linearGradient3912">
      <stop
         offset="0"
         style="stop-color:#787878;stop-opacity:1"
         id="stop3914" />
      <stop
         offset="0.35046947"
         style="stop-color:#bebebe;stop-opacity:1"
         id="stop3916" />
      <stop
         offset="0.49417919"
         style="stop-color:#c8c8c8;stop-opacity:1"
         id="stop3918" />
      <stop
         offset="0.58907253"
         style="stop-color:#e6e6e6;stop-opacity:1"
         id="stop3920" />
      <stop
         offset="1"
         style="stop-color:#8c8c8c;stop-opacity:1"
         id="stop3922" />
    </linearGradient>
    <linearGradient
       xlink:href="#linearGradient3178"
       id="linearGradient3138"
       gradientUnits="userSpaceOnUse"
       gradientTransform="matrix(0.68184398,0,0,0.6063426,-254.2496,-27.797984)"
       x1="397.07306"
       y1="87.076035"
       x2="397.07306"
       y2="95.365944" />
    <radialGradient
       xlink:href="#linearGradient10691-1"
       id="radialGradient3143"
       gradientUnits="userSpaceOnUse"
       gradientTransform="matrix(1.2450862,0,0,0.27668578,7.6545456,8.631578)"
       cx="6.702713"
       cy="73.615715"
       fx="6.702713"
       fy="73.615715"
       r="7.228416" />
    <linearGradient
       xlink:href="#linearGradient3880"
       id="linearGradient3146"
       gradientUnits="userSpaceOnUse"
       gradientTransform="matrix(1.1500002,0,0,1.1666666,-52.992924,5.3266864)"
       x1="10"
       y1="-3"
       x2="20"
       y2="12" />
    <linearGradient
       xlink:href="#linearGradient3924-1"
       id="linearGradient3149"
       gradientUnits="userSpaceOnUse"
       gradientTransform="matrix(1.2162163,0,0,0.83783786,-58.032119,-8.1147456)"
       x1="23.99999"
       y1="4.999989"
       x2="23.99999"
       y2="43" />
    <linearGradient
       xlink:href="#outerBackgroundGradient-5-0"
       id="linearGradient3153"
       gradientUnits="userSpaceOnUse"
       gradientTransform="matrix(1.0500002,0,0,1.2173913,-50.892923,7.7324834)"
       x1="15"
       y1="24.618645"
       x2="15"
       y2="2" />
    <linearGradient
       xlink:href="#linearGradient4293"
       id="linearGradient3157"
       gradientUnits="userSpaceOnUse"
       gradientTransform="matrix(0.76735295,0,0,0.517399,-2.4164796,1.589522)"
       x1="24.809988"
       y1="51.150356"
       x2="24.809988"
       y2="42.989254" />
    <linearGradient
       xlink:href="#linearGradient3912"
       id="linearGradient3161"
       gradientUnits="userSpaceOnUse"
       gradientTransform="matrix(0.9964089,0,0,1.0001438,-385.72492,-58.019364)"
       x1="361.10583"
       y1="87.050117"
       x2="361.10583"
       y2="94.396416" />
    <radialGradient
       xlink:href="#linearGradient10691-1-8"
       id="radialGradient3164"
       gradientUnits="userSpaceOnUse"
       gradientTransform="matrix(1.9368007,0,0,0.4150287,-41.824738,5.4407184)"
       cx="6.702713"
       cy="73.615715"
       fx="6.702713"
       fy="73.615715"
       r="7.228416" />
    <linearGradient
       y2="41.422607"
       x2="23.99999"
       y1="6.3918076"
       x1="23.99999"
       gradientTransform="matrix(0.78378391,0,0,0.54054052,-2.8108185,0.52703318)"
       gradientUnits="userSpaceOnUse"
       id="linearGradient3200"
       xlink:href="#linearGradient3223" />
    <linearGradient
       id="outerBackgroundGradient-5-0-2">
      <stop
         id="stop3864-8-6-4-7"
         offset="0"
         style="stop-color:#d4d4d4;stop-opacity:1" />
      <stop
         id="stop3866-9-1-86-7"
         offset="1"
         style="stop-color:#fafafa;stop-opacity:1" />
    </linearGradient>
    <linearGradient
       y2="2"
       x2="15"
       y1="24.618645"
       x1="15"
       gradientTransform="matrix(0.70000013,0,0,0.82608695,1.299998,10.608695)"
       gradientUnits="userSpaceOnUse"
       id="linearGradient3248"
       xlink:href="#outerBackgroundGradient-5-0-2" />
    <linearGradient
       id="linearGradient3880-3">
      <stop
         id="stop3883-1"
         offset="0"
         style="stop-color:#ffffff;stop-opacity:1;" />
      <stop
         id="stop3885-5"
         offset="1"
         style="stop-color:#ffffff;stop-opacity:0;" />
    </linearGradient>
    <linearGradient
       y2="12"
       x2="20"
       y1="-3"
       x1="10"
       gradientTransform="matrix(0.75000013,0,0,0.77777772,0.27110116,9.2222216)"
       gradientUnits="userSpaceOnUse"
       id="linearGradient3368"
       xlink:href="#linearGradient3880-3" />
    <linearGradient
       xlink:href="#linearGradient4054-4"
       id="linearGradient3157-8"
       gradientUnits="userSpaceOnUse"
       gradientTransform="matrix(1.2162163,0,0,0.83783786,-58.032119,-8.1147456)"
       x1="24.809988"
       y1="51.419304"
       x2="24.809988"
       y2="42.989254" />
    <linearGradient
       id="linearGradient4054-4">
      <stop
         offset="0"
         style="stop-color:#ffffff;stop-opacity:1"
         id="stop4056-5" />
      <stop
         offset="0.06316455"
         style="stop-color:#ffffff;stop-opacity:0.23529412"
         id="stop4058-9" />
      <stop
         offset="0.96892834"
         style="stop-color:#ffffff;stop-opacity:0.15686275"
         id="stop4060-0" />
      <stop
         offset="1"
         style="stop-color:#ffffff;stop-opacity:0.39215687"
         id="stop4062-1" />
    </linearGradient>
    <linearGradient
       x1="187.59608"
       y1="21.947994"
       x2="171.38887"
       y2="39.459602"
       id="linearGradient3167"
       xlink:href="#linearGradient3880"
       gradientUnits="userSpaceOnUse"
       gradientTransform="matrix(-1.3129651,0,0,0.87530996,260.45361,-9.4190373)" />
    <linearGradient
       x1="182"
       y1="33"
       x2="182"
       y2="24.519934"
       id="linearGradient3164"
       xlink:href="#linearGradient3880"
       gradientUnits="userSpaceOnUse"
       gradientTransform="matrix(-0.87273137,0,0,0.87273145,180.89984,-9.1192068)" />
  </defs>
  <g
     id="g4298">
    <g
       id="g4251">
      <path
         inkscape:connector-curvature="0"
         style="display:inline;overflow:visible;visibility:visible;opacity:0.3;fill:url(#radialGradient3143);fill-opacity:1;fill-rule:nonzero;stroke:none;stroke-width:0.80000001;marker:none"
         id="path2589"
         d="m 25,29 c 0,1.10457 -4.029438,2 -9.000001,2 C 11.029436,31 7,30.10457 7,29 7,27.895431 11.029436,27 15.999999,27 20.970562,27 25,27.895431 25,29 l 0,0 z" />
      <path
         inkscape:connector-curvature="0"
         style="color:#000000;display:inline;overflow:visible;visibility:visible;fill:url(#linearGradient3138);fill-opacity:1;fill-rule:nonzero;stroke:none;stroke-width:0.99827468;stroke-linecap:round;stroke-linejoin:round;stroke-miterlimit:4;stroke-dasharray:none;stroke-dashoffset:0.5;stroke-opacity:1;marker:none;enable-background:new"
         id="rect1789-8"
         d="m 11.798578,24.5 c 0,0 0.097,1.898544 -0.386813,2.5 -0.483816,0.601454 -1.4465228,0.5 -1.4465228,0.5 -0.617765,0.06319 -0.622875,2 0,2 l 12.0694668,0 c 0.622876,0 0.617894,-1.937619 0,-2 0,0 -0.962664,0.10147 -1.446474,-0.5 -0.48381,-0.601454 -0.386863,-2.5 -0.386863,-2.5 l -8.402794,0 z" />
      <path
         inkscape:connector-curvature="0"
         style="color:#000000;display:inline;overflow:visible;visibility:visible;opacity:0.3;fill:none;stroke:url(#linearGradient3157);stroke-width:0.99999994;stroke-linecap:round;stroke-linejoin:round;stroke-miterlimit:4;stroke-dasharray:none;stroke-dashoffset:0;stroke-opacity:1;marker:none;enable-background:accumulate"
         d="m 12.786173,22.208804 c 0,0 0.0018,2.844043 -0.01971,3.261387 -0.0197,0.38166 -0.05573,0.786402 -0.1183,1.157888 -0.06257,0.371488 -0.197167,0.651867 -0.441872,0.988014 -0.540042,0.741845 -1.337546,0.864844 -1.66431,0.883907 l 10.916038,0 C 21.131255,28.48094 20.368535,28.288364 19.8285,27.546516 19.583798,27.210369 19.41441,26.999566 19.35184,26.628079 19.28928,26.256594 19.25324,25.851851 19.23354,25.470191 19.212,25.052847 19.21383,22.208804 19.21383,22.208804 Z"
         id="path4050" />
      <path
         inkscape:connector-curvature="0"
         style="color:#000000;display:inline;overflow:visible;visibility:visible;opacity:0.4;fill:none;fill-opacity:1;fill-rule:nonzero;stroke:#000000;stroke-width:0.99827462;stroke-linecap:round;stroke-linejoin:round;stroke-miterlimit:4;stroke-dasharray:none;stroke-dashoffset:0.5;stroke-opacity:1;marker:none;enable-background:new"
         id="rect1789-8-2"
         d="m 11.798578,24.5 c 0,0 0.097,1.898544 -0.386813,2.5 -0.483816,0.601454 -1.4465228,0.5 -1.4465228,0.5 -0.617765,0.06319 -0.622875,2 0,2 l 12.0694668,0 c 0.622876,0 0.617894,-1.937619 0,-2 0,0 -0.962664,0.10147 -1.446474,-0.5 -0.48381,-0.601454 -0.386863,-2.5 -0.386863,-2.5 l -8.402794,0 z" />
      <rect
         style="fill:#1a1a1a;fill-opacity:1;stroke:#000000;stroke-width:1.00023937;stroke-linecap:round;stroke-linejoin:round;stroke-miterlimit:4;stroke-dasharray:none;stroke-dashoffset:0.5;stroke-opacity:1"
         id="rect2722"
         y="2.5001197"
         x="0.49999428"
         ry="0.6666643"
         rx="0.68889284"
         height="21.99976"
         width="31.000011" />
      <rect
         width="29"
         height="20"
         rx="0"
         ry="0"
         x="1.5"
         y="3.5"
         id="rect6741-9"
         style="opacity:0.2;fill:none;stroke:url(#linearGradient3200);stroke-width:1;stroke-linecap:round;stroke-linejoin:round;stroke-miterlimit:4;stroke-dasharray:none;stroke-dashoffset:0;stroke-opacity:1" />
      <path
         inkscape:connector-curvature="0"
         style="display:inline;fill:url(#linearGradient3248);fill-opacity:1;stroke:none"
         d="M 2,4 30,4 30,23 2,23 Z"
         id="rect2722-0-2" />
      <path
         inkscape:connector-curvature="0"
         style="color:#000000;display:inline;overflow:visible;visibility:visible;opacity:0.1;fill:#000000;fill-opacity:1;fill-rule:nonzero;stroke:none;marker:none;enable-background:accumulate"
         d="M 2,4 2,23 30,23 30,4 Z M 3,5 29,5 29,22 3,22 Z"
         id="rect2722-0-2-0" />
    </g>
    <g
       id="g4286">
      <path
         inkscape:connector-curvature="0"
         style="color:#000000;display:inline;overflow:visible;visibility:visible;opacity:0.9;fill:#c6262e;fill-opacity:1;fill-rule:evenodd;stroke:none;stroke-width:0.99999994;stroke-linecap:butt;stroke-linejoin:round;stroke-miterlimit:4;stroke-dasharray:none;stroke-dashoffset:0;stroke-opacity:1;marker:none;enable-background:accumulate"
         id="path4278"
         d="M 29.5,4.4999303 2.4998864,22.5 29.5,22.5 Z M 23.499998,13.5 l 0,5 -6.999998,0 z"
         sodipodi:nodetypes="cccccccc" />
      <path
         sodipodi:nodetypes="ccc"
         inkscape:connector-curvature="0"
         style="opacity:0.4;fill:none;stroke:url(#linearGradient3164);stroke-width:0.99999982px;stroke-linecap:butt;stroke-linejoin:miter;stroke-opacity:1"
         id="path3981-5"
         d="m 24.5,13 0,6.5 -8.5,0" />
      <path
         sodipodi:nodetypes="cccccccc"
         d="M 29.5,4.4999303 2.4998864,22.5 29.5,22.5 Z M 23.499998,13.5 l 0,5 -6.999998,0 z"
         id="path4233"
         style="color:#000000;display:inline;overflow:visible;visibility:visible;fill:none;fill-opacity:0.58823529;fill-rule:evenodd;stroke:#7a0000;stroke-width:0.99999994;stroke-linecap:butt;stroke-linejoin:round;stroke-miterlimit:4;stroke-dasharray:none;stroke-dashoffset:0;stroke-opacity:1;marker:none;enable-background:accumulate"
         inkscape:connector-curvature="0" />
      <path
         sodipodi:nodetypes="cccc"
         inkscape:connector-curvature="0"
         style="opacity:0.4;fill:none;stroke:url(#linearGradient3167);stroke-width:0.99999994px;stroke-linecap:butt;stroke-linejoin:miter;stroke-opacity:1"
         id="path3981"
         d="M 28.5,6.378466 28.5,21.5 5.8017648,21.5 Z" />
      <g
         id="g4258"
         style="opacity:0.5">
        <path
           style="color:#000000;clip-rule:nonzero;display:inline;overflow:visible;visibility:visible;opacity:1;isolation:auto;mix-blend-mode:normal;color-interpolation:sRGB;color-interpolation-filters:linearRGB;solid-color:#000000;solid-opacity:1;fill:#000000;fill-opacity:1;fill-rule:nonzero;stroke:none;stroke-width:1;stroke-linecap:round;stroke-linejoin:round;stroke-miterlimit:4;stroke-dasharray:none;stroke-dashoffset:0;stroke-opacity:1;marker:none;color-rendering:auto;image-rendering:auto;shape-rendering:auto;text-rendering:auto;enable-background:accumulate"
           d="M 8 21 L 8 22 L 9 22 L 9 21 L 8 21 z M 11 21 L 11 22 L 12 22 L 12 21 L 11 21 z M 14 21 L 14 22 L 15 22 L 15 21 L 14 21 z M 17 21 L 17 22 L 18 22 L 18 21 L 17 21 z M 20 21 L 20 22 L 21 22 L 21 21 L 20 21 z M 23 21 L 23 22 L 24 22 L 24 21 L 23 21 z M 26 21 L 26 22 L 27 22 L 27 21 L 26 21 z "
           id="rect4241" />
        <path
           inkscape:connector-curvature="0"
           style="color:#000000;clip-rule:nonzero;display:inline;overflow:visible;visibility:visible;opacity:1;isolation:auto;mix-blend-mode:normal;color-interpolation:sRGB;color-interpolation-filters:linearRGB;solid-color:#000000;solid-opacity:1;fill:#000000;fill-opacity:1;fill-rule:nonzero;stroke:none;stroke-width:1;stroke-linecap:round;stroke-linejoin:round;stroke-miterlimit:4;stroke-dasharray:none;stroke-dashoffset:0;stroke-opacity:1;marker:none;color-rendering:auto;image-rendering:auto;shape-rendering:auto;text-rendering:auto;enable-background:accumulate"
           d="m 29,7.0000004 -1,0 0,1 1,0 0,-1 z M 29,10 l -1,0 0,1 1,0 0,-1 z m 0,3 -1,0 0,1 1,0 0,-1 z m 0,3 -1,0 0,1 1,0 0,-1 z m 0,3 -1,0 0,1 1,0 0,-1 z"
           id="path4254" />
      </g>
      <g
         id="g4262"
         style="opacity:0.05">
        <path
           style="color:#000000;clip-rule:nonzero;display:inline;overflow:visible;visibility:visible;opacity:1;isolation:auto;mix-blend-mode:normal;color-interpolation:sRGB;color-interpolation-filters:linearRGB;solid-color:#000000;solid-opacity:1;fill:#ffffff;fill-opacity:1;fill-rule:nonzero;stroke:none;stroke-width:1;stroke-linecap:round;stroke-linejoin:round;stroke-miterlimit:4;stroke-dasharray:none;stroke-dashoffset:0;stroke-opacity:1;marker:none;color-rendering:auto;image-rendering:auto;shape-rendering:auto;text-rendering:auto;enable-background:accumulate"
           d="M 9 21 L 9 22 L 10 22 L 10 21 L 9 21 z M 12 21 L 12 22 L 13 22 L 13 21 L 12 21 z M 15 21 L 15 22 L 16 22 L 16 21 L 15 21 z M 18 21 L 18 22 L 19 22 L 19 21 L 18 21 z M 21 21 L 21 22 L 22 22 L 22 21 L 21 21 z M 24 21 L 24 22 L 25 22 L 25 21 L 24 21 z M 27 21 L 27 22 L 28 22 L 28 21 L 27 21 z "
           id="path4252" />
        <path
           id="path4256"
           d="m 29,8.0000004 -1,0 0,1 1,0 0,-1 z M 29,11 l -1,0 0,1 1,0 0,-1 z m 0,3 -1,0 0,1 1,0 0,-1 z m 0,3 -1,0 0,1 1,0 0,-1 z m 0,3 -1,0 0,1 1,0 0,-1 z"
           style="color:#000000;clip-rule:nonzero;display:inline;overflow:visible;visibility:visible;opacity:1;isolation:auto;mix-blend-mode:normal;color-interpolation:sRGB;color-interpolation-filters:linearRGB;solid-color:#000000;solid-opacity:1;fill:#ffffff;fill-opacity:1;fill-rule:nonzero;stroke:none;stroke-width:1;stroke-linecap:round;stroke-linejoin:round;stroke-miterlimit:4;stroke-dasharray:none;stroke-dashoffset:0;stroke-opacity:1;marker:none;color-rendering:auto;image-rendering:auto;shape-rendering:auto;text-rendering:auto;enable-background:accumulate"
           inkscape:connector-curvature="0" />
      </g>
    </g>
  </g>
</svg>
