<?xml version="1.0" encoding="UTF-8"?>
<svg height="16px" viewBox="0 0 16 16" width="16px" xmlns="http://www.w3.org/2000/svg" xmlns:xlink="http://www.w3.org/1999/xlink">
    <filter id="a" height="100%" width="100%" x="0%" y="0%">
        <feColorMatrix in="SourceGraphic" type="matrix" values="0 0 0 0 1 0 0 0 0 1 0 0 0 0 1 0 0 0 1 0"/>
    </filter>
    <mask id="b">
        <g filter="url(#a)">
            <rect fill-opacity="0.3" height="16" width="16"/>
        </g>
    </mask>
    <clipPath id="c">
        <rect height="152" width="192"/>
    </clipPath>
    <mask id="d">
        <g filter="url(#a)">
            <rect fill-opacity="0.3" height="16" width="16"/>
        </g>
    </mask>
    <clipPath id="e">
        <rect height="152" width="192"/>
    </clipPath>
    <mask id="f">
        <g filter="url(#a)">
            <rect fill-opacity="0.1" height="16" width="16"/>
        </g>
    </mask>
    <radialGradient id="g" cx="-28.559336" cy="-433.736725" gradientTransform="matrix(4.136364 -0.00000036 0 1.090909 186.131805 571.167297)" gradientUnits="userSpaceOnUse" r="44">
        <stop offset="0" stop-color="#ffffff"/>
        <stop offset="1" stop-color="#ffffff" stop-opacity="0.094118"/>
    </radialGradient>
    <clipPath id="h">
        <rect height="152" width="192"/>
    </clipPath>
    <mask id="i">
        <g filter="url(#a)">
            <rect fill-opacity="0.3" height="16" width="16"/>
        </g>
    </mask>
    <clipPath id="j">
        <rect height="152" width="192"/>
    </clipPath>
    <mask id="k">
        <g filter="url(#a)">
            <rect fill-opacity="0.3" height="16" width="16"/>
        </g>
    </mask>
    <clipPath id="l">
        <rect height="152" width="192"/>
    </clipPath>
    <g clip-path="url(#c)" mask="url(#b)" transform="matrix(1 0 0 1 -168 -16)">
        <path d="m 48 112 h 12 v 4 h -12 z m 0 0"/>
    </g>
    <g clip-path="url(#e)" mask="url(#d)" transform="matrix(1 0 0 1 -168 -16)">
        <path d="m 84 112 h 12 v 4 h -12 z m 0 0"/>
    </g>
    <g clip-path="url(#h)" mask="url(#f)" transform="matrix(1 0 0 1 -168 -16)">
        <path d="m 26 30 h 92 c 2.210938 0 4 1.789062 4 4 v 60 c 0 2.210938 -1.789062 4 -4 4 h -92 c -2.210938 0 -4 -1.789062 -4 -4 v -60 c 0 -2.210938 1.789062 -4 4 -4 z m 0 0" fill="url(#g)"/>
    </g>
    <g clip-path="url(#j)" mask="url(#i)" transform="matrix(1 0 0 1 -168 -16)">
        <path d="m 84.003906 48.542969 l -16.492187 19.792969 l -8.128907 -8.128907 l -7.070312 7.070313 l 15.871094 15.875 l 23.503906 -28.207032 z m 0 0"/>
    </g>
    <g clip-path="url(#l)" mask="url(#k)" transform="matrix(1 0 0 1 -168 -16)">
        <path d="m 106 34 c -1.105469 0 -2 0.894531 -2 2 s 0.894531 2 2 2 h 10 v 10 c 0 1.105469 0.894531 2 2 2 s 2 -0.894531 2 -2 v -12 c 0 -1.105469 -0.894531 -2 -2 -2 z m -80 48 c -1.105469 0 -2 0.894531 -2 2 v 12 c 0 1.105469 0.894531 2 2 2 h 12 c 1.105469 0 2 -0.894531 2 -2 s -0.894531 -2 -2 -2 h -10 v -10 c 0 -1.105469 -0.894531 -2 -2 -2 z m 92 0 c -1.105469 0 -2 0.894531 -2 2 v 10 h -10 c -1.105469 0 -2 0.894531 -2 2 s 0.894531 2 2 2 h 12 c 1.105469 0 2 -0.894531 2 -2 v -12 c 0 -1.105469 -0.894531 -2 -2 -2 z m 0 0"/>
    </g>
    <path d="m 2 0 c -1.089844 0 -2 0.910156 -2 2 v 8 c 0 1.089844 0.910156 2 2 2 h 2 v 2 c 0 1.089844 0.910156 2 2 2 h 4 c 1.089844 0 2 -0.910156 2 -2 v -2 h 2 c 1.089844 0 2 -0.910156 2 -2 v -8 c 0 -1.089844 -0.910156 -2 -2 -2 z m 0 2 h 12 v 8 h -12 z m 8 1 c -0.550781 0 -1 0.449219 -1 1 s 0.449219 1 1 1 h 1 v 1 c 0 0.550781 0.449219 1 1 1 s 1 -0.449219 1 -1 v -2 c 0 -0.550781 -0.449219 -1 -1 -1 z m -6 2 c -0.550781 0 -1 0.449219 -1 1 v 2 c 0 0.550781 0.449219 1 1 1 h 2 c 0.550781 0 1 -0.449219 1 -1 s -0.449219 -1 -1 -1 h -1 v -1 c 0 -0.550781 -0.449219 -1 -1 -1 z m 2 7 h 4 v 2 h -4 z m 0 0"/>
</svg>
