<?xml version="1.0" encoding="UTF-8" standalone="no"?>
<svg
   xmlns:dc="http://purl.org/dc/elements/1.1/"
   xmlns:cc="http://creativecommons.org/ns#"
   xmlns:rdf="http://www.w3.org/1999/02/22-rdf-syntax-ns#"
   xmlns:svg="http://www.w3.org/2000/svg"
   xmlns="http://www.w3.org/2000/svg"
   xmlns:xlink="http://www.w3.org/1999/xlink"
   xmlns:sodipodi="http://sodipodi.sourceforge.net/DTD/sodipodi-0.dtd"
   xmlns:inkscape="http://www.inkscape.org/namespaces/inkscape"
   id="svg4569"
   height="128"
   width="128"
   version="1.0"
   inkscape:version="0.91 r13725"
   sodipodi:docname="video-display-measure-vertical.svg">
  <sodipodi:namedview
     pagecolor="#ffffff"
     bordercolor="#666666"
     borderopacity="1"
     objecttolerance="10"
     gridtolerance="10"
     guidetolerance="10"
     inkscape:pageopacity="0"
     inkscape:pageshadow="2"
     inkscape:window-width="1920"
     inkscape:window-height="1017"
     id="namedview45"
     showgrid="true"
     inkscape:zoom="1"
     inkscape:cx="-30.747658"
     inkscape:cy="159.93616"
     inkscape:window-x="0"
     inkscape:window-y="30"
     inkscape:window-maximized="1"
     inkscape:current-layer="svg4569">
    <inkscape:grid
       type="xygrid"
       id="grid4271"
       empspacing="4" />
    <inkscape:grid
       type="xygrid"
       id="grid4219"
       empspacing="2"
       spacingx="0.5"
       spacingy="0.5" />
  </sodipodi:namedview>
  <metadata
     id="metadata46">
    <rdf:RDF>
      <cc:Work
         rdf:about="">
        <dc:format>image/svg+xml</dc:format>
        <dc:type
           rdf:resource="http://purl.org/dc/dcmitype/StillImage" />
        <dc:title></dc:title>
      </cc:Work>
    </rdf:RDF>
  </metadata>
  <defs
     id="defs4571">
    <linearGradient
       id="linearGradient4200">
      <stop
         offset="0"
         style="stop-color:#ffffff;stop-opacity:1"
         id="stop4202" />
      <stop
         id="stop4210"
         style="stop-color:#ffffff;stop-opacity:0.09883721"
         offset="0.01612904" />
      <stop
         id="stop4206"
         style="stop-color:#ffffff;stop-opacity:0.09883721"
         offset="0.98387098" />
      <stop
         offset="1"
         style="stop-color:#ffffff;stop-opacity:0.24705882;"
         id="stop4208" />
      <stop
         offset="1"
         style="stop-color:#ffffff;stop-opacity:0.78488374"
         id="stop4204" />
    </linearGradient>
    <linearGradient
       id="linearGradient4306">
      <stop
         id="stop4308"
         style="stop-color:#ffffff;stop-opacity:1"
         offset="0" />
      <stop
         id="stop4310"
         style="stop-color:#ffffff;stop-opacity:0"
         offset="1" />
    </linearGradient>
    <linearGradient
       id="linearGradient3912">
      <stop
         offset="0"
         style="stop-color:#273445;stop-opacity:1"
         id="stop3914" />
      <stop
         offset="0.35046947"
         style="stop-color:#667885;stop-opacity:1"
         id="stop3916" />
      <stop
         offset="0.49417919"
         style="stop-color:#95a3ab;stop-opacity:1"
         id="stop3918" />
      <stop
         offset="0.58907253"
         style="stop-color:#667885;stop-opacity:1"
         id="stop3920" />
      <stop
         offset="1"
         style="stop-color:#485a6c;stop-opacity:1"
         id="stop3922" />
    </linearGradient>
    <linearGradient
       id="linearGradient6592-2-7">
      <stop
         offset="0"
         style="stop-color:#ffffff;stop-opacity:0.27450982"
         id="stop6594-0-2" />
      <stop
         offset="1"
         style="stop-color:#ffffff;stop-opacity:0"
         id="stop6596-2-5" />
    </linearGradient>
    <linearGradient
       id="linearGradient10691-1">
      <stop
         offset="0"
         style="stop-color:#000000;stop-opacity:1"
         id="stop10693-3" />
      <stop
         offset="1"
         style="stop-color:#000000;stop-opacity:0"
         id="stop10695-1" />
    </linearGradient>
    <linearGradient
       gradientTransform="matrix(2.6746618,0,0,2.5459707,-893.97886,-122.09114)"
       gradientUnits="userSpaceOnUse"
       xlink:href="#linearGradient3912"
       id="linearGradient3221"
       y2="94.396416"
       x2="361.10583"
       y1="87.050117"
       x1="361.10583" />
    <radialGradient
       gradientTransform="matrix(5.2570306,0,0,1.1067431,28.763637,34.526312)"
       gradientUnits="userSpaceOnUse"
       xlink:href="#linearGradient10691-1"
       id="radialGradient3226"
       fy="73.615715"
       fx="6.702713"
       r="7.228416"
       cy="73.615715"
       cx="6.702713" />
    <linearGradient
       id="linearGradient4084">
      <stop
         offset="0"
         style="stop-color:#ffffff;stop-opacity:1"
         id="stop4086" />
      <stop
         offset="0.01596775"
         style="stop-color:#ffffff;stop-opacity:0.23529412"
         id="stop4088" />
      <stop
         offset="0.99257565"
         style="stop-color:#ffffff;stop-opacity:0.15686275"
         id="stop4090" />
      <stop
         offset="1"
         style="stop-color:#ffffff;stop-opacity:0.39215687"
         id="stop4092" />
    </linearGradient>
    <linearGradient
       id="outerBackgroundGradient-5-0">
      <stop
         id="stop3864-8-6-4"
         offset="0"
         style="stop-color:#d4d4d4;stop-opacity:1" />
      <stop
         id="stop3866-9-1-86"
         offset="1"
         style="stop-color:#fafafa;stop-opacity:1" />
    </linearGradient>
    <linearGradient
       xlink:href="#linearGradient6592-2-7"
       id="linearGradient3141"
       gradientUnits="userSpaceOnUse"
       gradientTransform="matrix(3.1000007,0,0,3.136008,-1.1000124,35.088071)"
       x1="10"
       y1="-3"
       x2="20"
       y2="12" />
    <linearGradient
       xlink:href="#linearGradient4084"
       id="linearGradient3144"
       gradientUnits="userSpaceOnUse"
       gradientTransform="matrix(3.3243244,0,0,2.3243242,-15.783808,-2.2837566)"
       x1="23.99999"
       y1="5.7531762"
       x2="23.99999"
       y2="42.121033" />
    <linearGradient
       xlink:href="#outerBackgroundGradient-5-0"
       id="linearGradient3148"
       gradientUnits="userSpaceOnUse"
       gradientTransform="matrix(2.8500006,0,0,3.2608694,4.150005,42.086958)"
       x1="15"
       y1="24.618645"
       x2="15"
       y2="2" />
    <linearGradient
       id="linearGradient4054-5">
      <stop
         offset="0"
         style="stop-color:#ffffff;stop-opacity:1"
         id="stop4056-0" />
      <stop
         offset="0.01719457"
         style="stop-color:#ffffff;stop-opacity:0.23529412"
         id="stop4058-4" />
      <stop
         offset="1"
         style="stop-color:#ffffff;stop-opacity:0.15686275"
         id="stop4060-4" />
      <stop
         offset="1"
         style="stop-color:#ffffff;stop-opacity:0.39215687"
         id="stop4062-0" />
    </linearGradient>
    <linearGradient
       xlink:href="#linearGradient4054-5"
       id="linearGradient3152-7"
       gradientUnits="userSpaceOnUse"
       gradientTransform="matrix(1.2162163,0,0,0.83783786,2.6663586,14.977385)"
       x1="47.546879"
       y1="121.84093"
       x2="47.546879"
       y2="99.079079" />
    <linearGradient
       x1="185.25845"
       y1="25.016096"
       x2="172.44084"
       y2="40.298641"
       id="linearGradient3289"
       xlink:href="#linearGradient4306"
       gradientUnits="userSpaceOnUse"
       gradientTransform="matrix(4.8244191,0,0,4.8244205,-842.85923,-64.91768)" />
    <linearGradient
       x1="182"
       y1="33"
       x2="182"
       y2="24.519934"
       id="linearGradient3286"
       xlink:href="#linearGradient6592-2-7"
       gradientUnits="userSpaceOnUse"
       gradientTransform="matrix(3.6057986,0,0,3.6071671,-622.53078,-26.37948)" />
    <linearGradient
       inkscape:collect="always"
       xlink:href="#linearGradient4200"
       id="linearGradient4231"
       x1="75.000114"
       y1="78"
       x2="13.000114"
       y2="78"
       gradientUnits="userSpaceOnUse" />
  </defs>
  <g
     id="g4212">
    <path
       d="m 102,116 c 0,4.41828 -17.013179,8 -38.000002,8 C 43.013178,124 26,120.41828 26,116 26,111.58172 43.013178,108 63.999998,108 84.986821,108 102,111.58172 102,116 l 0,0 z"
       id="path2589"
       style="display:inline;overflow:visible;visibility:visible;opacity:0.3;fill:url(#radialGradient3226);fill-opacity:1;fill-rule:nonzero;stroke:none;stroke-width:0.80000001;marker:none"
       inkscape:connector-curvature="0" />
    <path
       d="m 47.5,97.499139 c 0,0 0.397503,10.838601 -1.50061,13.364911 -1.898112,2.52633 -5.675011,4.13662 -5.675011,4.13662 -2.423623,0.2654 -2.443672,3.5002 0,3.5002 l 47.351051,0 c 2.443672,0 2.424131,-3.23819 0,-3.5002 0,0 -3.776735,-1.6103 -5.674819,-4.13662 C 80.102525,108.33775 80.5,97.499139 80.5,97.499139 l -32.983056,0 -0.01694,0 z"
       id="rect1789"
       style="display:inline;overflow:visible;visibility:visible;fill:url(#linearGradient3221);fill-opacity:1;fill-rule:nonzero;stroke:none;stroke-width:0.99827462;stroke-linecap:round;stroke-linejoin:round;stroke-miterlimit:4;stroke-dasharray:none;stroke-dashoffset:0.5;stroke-opacity:1;marker:none;enable-background:new"
       inkscape:connector-curvature="0" />
    <path
       d="m 47.5,97.499139 c 0,0 0.397503,10.838601 -1.50061,13.364911 -1.898112,2.52633 -5.675011,4.13662 -5.675011,4.13662 -2.423623,0.2654 -2.443672,3.5002 0,3.5002 l 47.351051,0 c 2.443672,0 2.424131,-3.23819 0,-3.5002 0,0 -3.776735,-1.6103 -5.674819,-4.13662 C 80.102525,108.33775 80.5,97.499139 80.5,97.499139 l -32.983056,0 -0.01694,0 z"
       id="rect1789-8"
       style="color:#000000;clip-rule:nonzero;display:inline;overflow:visible;visibility:visible;opacity:0.4;isolation:auto;mix-blend-mode:normal;color-interpolation:sRGB;color-interpolation-filters:linearRGB;solid-color:#000000;solid-opacity:1;fill:none;fill-opacity:1;fill-rule:nonzero;stroke:#000000;stroke-width:1;stroke-linecap:round;stroke-linejoin:round;stroke-miterlimit:4;stroke-dasharray:none;stroke-dashoffset:0.5;stroke-opacity:1;marker:none;color-rendering:auto;image-rendering:auto;shape-rendering:auto;text-rendering:auto;enable-background:new"
       inkscape:connector-curvature="0" />
    <rect
       width="124.99976"
       height="87.999756"
       rx="2.5"
       ry="2.5"
       x="1.5001197"
       y="9.500124"
       id="rect2722-7"
       style="fill:#1a1a1a;fill-opacity:1;stroke:#000000;stroke-width:1.00023937;stroke-linecap:round;stroke-linejoin:round;stroke-miterlimit:4;stroke-dasharray:none;stroke-dashoffset:0.5;stroke-opacity:1" />
    <path
       style="display:inline;fill:url(#linearGradient3148);fill-opacity:1;stroke:none"
       d="m 7.000002,16.000002 113.999998,0 0,75 -113.999998,0 z"
       id="rect2722-0"
       inkscape:connector-curvature="0" />
    <rect
       width="122.99999"
       height="86"
       rx="1.5"
       ry="1.5"
       x="2.5000052"
       y="10.500002"
       id="rect6741"
       style="opacity:0.2;fill:none;stroke:url(#linearGradient3144);stroke-width:0.99999994;stroke-linecap:round;stroke-linejoin:round;stroke-miterlimit:4;stroke-dasharray:none;stroke-dashoffset:0;stroke-opacity:1" />
    <path
       style="color:#000000;clip-rule:nonzero;display:inline;overflow:visible;visibility:visible;opacity:0.1;isolation:auto;mix-blend-mode:normal;color-interpolation:sRGB;color-interpolation-filters:linearRGB;solid-color:#000000;solid-opacity:1;fill:#000000;fill-opacity:1;fill-rule:nonzero;stroke:none;stroke-width:1;stroke-linecap:butt;stroke-linejoin:miter;stroke-miterlimit:4;stroke-dasharray:none;stroke-dashoffset:0;stroke-opacity:1;color-rendering:auto;image-rendering:auto;shape-rendering:auto;text-rendering:auto;enable-background:accumulate"
       d="m 7,16 0,75 114,0 0,-75 -114,0 z m 1,1 112,0 0,73 L 8,90 8,17 Z"
       id="rect2722-0-3"
       inkscape:connector-curvature="0" />
    <path
       style="color:#000000;clip-rule:nonzero;display:inline;overflow:visible;visibility:visible;opacity:0.3;isolation:auto;mix-blend-mode:normal;color-interpolation:sRGB;color-interpolation-filters:linearRGB;solid-color:#000000;solid-opacity:1;fill:none;fill-opacity:1;fill-rule:nonzero;stroke:url(#linearGradient3152-7);stroke-width:1;stroke-linecap:round;stroke-linejoin:round;stroke-miterlimit:4;stroke-dasharray:none;stroke-dashoffset:0;stroke-opacity:1;marker:none;color-rendering:auto;image-rendering:auto;shape-rendering:auto;text-rendering:auto;enable-background:accumulate"
       d="m 48.478516,98.486328 c 0.02065,0.733663 0.08406,2.260412 -0.03125,4.792972 -0.06997,1.53666 -0.199201,3.15889 -0.439454,4.59375 -0.240251,1.43485 -0.530844,2.66645 -1.21875,3.58203 -2.154724,2.86787 -6.078125,4.45312 -6.078124,4.45312 -0.08905,0.0376 -0.183159,0.062 -0.279297,0.0723 -0.78107,0.0855 -0.944221,0.50444 -0.945313,0.87109 -5.46e-4,0.18333 0.05961,0.3357 0.167969,0.44532 0.108361,0.1096 0.276609,0.21679 0.669922,0.21679 l 47.351562,0 c 0.393085,0 0.561397,-0.10695 0.669922,-0.21679 0.108525,-0.10986 0.170455,-0.26169 0.169922,-0.44532 -0.0011,-0.36726 -0.164558,-0.7867 -0.945313,-0.87109 -0.0968,-0.0101 -0.191578,-0.0344 -0.28125,-0.0723 0,0 -3.923422,-1.58525 -6.078124,-4.45312 -0.687899,-0.91557 -0.9785,-2.14718 -1.21875,-3.58203 -0.240252,-1.43485 -0.369484,-3.05709 -0.439454,-4.59375 -0.115315,-2.53256 -0.0519,-4.059308 -0.03125,-4.792972"
       id="path4419"
       inkscape:connector-curvature="0" />
    <g
       transform="matrix(0,-1,1,0,32,98.000114)"
       id="g4247">
      <rect
         style="color:#000000;clip-rule:nonzero;display:inline;overflow:visible;visibility:visible;opacity:0.9;isolation:auto;mix-blend-mode:normal;color-interpolation:sRGB;color-interpolation-filters:linearRGB;solid-color:#000000;solid-opacity:1;fill:#c6262e;fill-opacity:1;fill-rule:nonzero;stroke:none;stroke-width:1;stroke-linecap:round;stroke-linejoin:round;stroke-miterlimit:4;stroke-dasharray:none;stroke-dashoffset:0;stroke-opacity:1;marker:none;color-rendering:auto;image-rendering:auto;shape-rendering:auto;text-rendering:auto;enable-background:accumulate"
         id="rect4221"
         width="64.000114"
         height="12.004425"
         x="12.5"
         y="71.5" />
      <path
         sodipodi:nodetypes="cccccccccccccccccccccccccccccccccccccccccccccccccccccccccccc"
         inkscape:connector-curvature="0"
         style="color:#000000;clip-rule:nonzero;display:inline;overflow:visible;visibility:visible;opacity:0.3;isolation:auto;mix-blend-mode:normal;color-interpolation:sRGB;color-interpolation-filters:linearRGB;solid-color:#000000;solid-opacity:1;fill:#ffffff;fill-opacity:1;fill-rule:nonzero;stroke:none;stroke-width:1;stroke-linecap:round;stroke-linejoin:round;stroke-miterlimit:4;stroke-dasharray:none;stroke-dashoffset:0;stroke-opacity:1;marker:none;color-rendering:auto;image-rendering:auto;shape-rendering:auto;text-rendering:auto;enable-background:accumulate"
         d="m 15,80 0,3 1,0 0,-3 z m 5,0 0,3 1,0 0,-3 z m 5,0 0,3 1,0 0,-3 z m 5,0 0,3 1,0 0,-3 z m 5,0 0,3 1,0 0,-3 z m 5,0 0,3 1,0 0,-3 z m 5,0 0,3 1,0 0,-3 z m 5,0 0,3 1,0 0,-3 z m 5,0 0,3 1,0 0,-3 z m 5,0 0,3 1,0 0,-3 z m 5,0 0,3 1,0 0,-3 z m 5,0 0,3 1,0 0,-3 z"
         id="rect4273" />
      <rect
         y="71.5"
         x="12.5"
         height="12.004425"
         width="64.000114"
         id="rect4217"
         style="color:#000000;clip-rule:nonzero;display:inline;overflow:visible;visibility:visible;opacity:1;isolation:auto;mix-blend-mode:normal;color-interpolation:sRGB;color-interpolation-filters:linearRGB;solid-color:#000000;solid-opacity:1;fill:none;fill-opacity:1;fill-rule:nonzero;stroke:#7a0000;stroke-width:1;stroke-linecap:round;stroke-linejoin:round;stroke-miterlimit:4;stroke-dasharray:none;stroke-dashoffset:0;stroke-opacity:1;marker:none;color-rendering:auto;image-rendering:auto;shape-rendering:auto;text-rendering:auto;enable-background:accumulate" />
      <rect
         style="color:#000000;clip-rule:nonzero;display:inline;overflow:visible;visibility:visible;opacity:0.4;isolation:auto;mix-blend-mode:normal;color-interpolation:sRGB;color-interpolation-filters:linearRGB;solid-color:#000000;solid-opacity:1;fill:none;fill-opacity:1;fill-rule:nonzero;stroke:url(#linearGradient4231);stroke-width:1;stroke-linecap:round;stroke-linejoin:round;stroke-miterlimit:4;stroke-dasharray:none;stroke-dashoffset:0;stroke-opacity:1;marker:none;color-rendering:auto;image-rendering:auto;shape-rendering:auto;text-rendering:auto;enable-background:accumulate"
         id="rect4223"
         width="62.000114"
         height="10"
         x="13.5"
         y="72.5" />
      <path
         sodipodi:nodetypes="cccccccccccccccccccccccccccccccccccccccccccccccccccccccccccc"
         id="path4245"
         d="m 16,80 0,3 1,0 0,-3 z m 5,0 0,3 1,0 0,-3 z m 5,0 0,3 1,0 0,-3 z m 5,0 0,3 1,0 0,-3 z m 5,0 0,3 1,0 0,-3 z m 5,0 0,3 1,0 0,-3 z m 5,0 0,3 1,0 0,-3 z m 5,0 0,3 1,0 0,-3 z m 5,0 0,3 1,0 0,-3 z m 5,0 0,3 1,0 0,-3 z m 5,0 0,3 1,0 0,-3 z m 5,0 0,3 1,0 0,-3 z"
         style="color:#000000;clip-rule:nonzero;display:inline;overflow:visible;visibility:visible;opacity:0.3;isolation:auto;mix-blend-mode:normal;color-interpolation:sRGB;color-interpolation-filters:linearRGB;solid-color:#000000;solid-opacity:1;fill:#000000;fill-opacity:1.0;fill-rule:nonzero;stroke:none;stroke-width:1;stroke-linecap:round;stroke-linejoin:round;stroke-miterlimit:4;stroke-dasharray:none;stroke-dashoffset:0;stroke-opacity:1;marker:none;color-rendering:auto;image-rendering:auto;shape-rendering:auto;text-rendering:auto;enable-background:accumulate"
         inkscape:connector-curvature="0" />
    </g>
  </g>
</svg>
