<?xml version="1.0" encoding="UTF-8"?>
<svg height="128px" viewBox="0 0 128 128" width="128px" xmlns="http://www.w3.org/2000/svg" xmlns:xlink="http://www.w3.org/1999/xlink">
    <linearGradient id="a" gradientUnits="userSpaceOnUse" x1="7.9998935" x2="119.9998935" y1="116.000067" y2="116.000067">
        <stop offset="0" stop-color="#77767b"/>
        <stop offset="0.0357143" stop-color="#c0bfbc"/>
        <stop offset="0.0713653" stop-color="#9a9996"/>
        <stop offset="0.928571" stop-color="#9a9996"/>
        <stop offset="0.964286" stop-color="#c0bfbc"/>
        <stop offset="1" stop-color="#77767b"/>
    </linearGradient>
    <radialGradient id="b" cx="27.519112" cy="193.839127" gradientTransform="matrix(0.878959 0.878959 -2.583333 2.583333 502.562897 -496.93927)" gradientUnits="userSpaceOnUse" r="48">
        <stop offset="0" stop-color="#f66151"/>
        <stop offset="1" stop-color="#9141ac"/>
    </radialGradient>
    <filter id="c" height="100%" width="100%" x="0%" y="0%">
        <feColorMatrix in="SourceGraphic" type="matrix" values="0 0 0 0 1 0 0 0 0 1 0 0 0 0 1 0 0 0 1 0"/>
    </filter>
    <mask id="d">
        <g filter="url(#c)">
            <rect fill-opacity="0.1" height="128" width="128"/>
        </g>
    </mask>
    <radialGradient id="e" cx="-28.559341" cy="-431.903503" gradientTransform="matrix(4.136364 -0.00000036 0 1.090909 190.131805 575.167297)" gradientUnits="userSpaceOnUse" r="44">
        <stop offset="0" stop-color="#ffffff"/>
        <stop offset="1" stop-color="#ffffff" stop-opacity="0.094118"/>
    </radialGradient>
    <clipPath id="f">
        <rect height="152" width="192"/>
    </clipPath>
    <mask id="g">
        <g filter="url(#c)">
            <rect fill-opacity="0.3" height="128" width="128"/>
        </g>
    </mask>
    <clipPath id="h">
        <rect height="152" width="192"/>
    </clipPath>
    <path d="m 116 96 l 4 10 v 2 c 0 4.433594 -3.566406 8 -8 8 h -96 c -4.433594 0 -8 -3.566406 -8 -8 v -2 l 4 -10 z m 0 0" fill="url(#a)"/>
    <path d="m 12 96 s -4 8 -4 8 v 1.667969 c 0 3.507812 3.566406 6.332031 8 6.332031 h 96 c 4.433594 0 8 -2.824219 8 -6.332031 v -1.667969 l -4 -8 z m 0 0" fill="#deddda"/>
    <path d="m 20 12 c -4.433594 0 -8 3.566406 -8 8 v 76 h 104 v -76 c 0 -4.433594 -3.566406 -8 -8 -8 z m 0 0" fill="#3d3846"/>
    <path d="m 16.507812 98 c -0.378906 0 -0.726562 0.214844 -0.894531 0.550781 l -4 8 c -0.335937 0.667969 0.148438 1.449219 0.894531 1.449219 h 102.492188 c 0.742188 0 1.226562 -0.78125 0.894531 -1.449219 l -4 -8 c -0.167969 -0.335937 -0.515625 -0.550781 -0.894531 -0.550781 z m 0 0" fill="#3d3846"/>
    <path d="m 20 16 h 88 c 2.210938 0 4 1.789062 4 4 v 66 c 0 2.210938 -1.789062 4 -4 4 h -88 c -2.210938 0 -4 -1.789062 -4 -4 v -66 c 0 -2.210938 1.789062 -4 4 -4 z m 0 0" fill="url(#b)"/>
    <path d="m 78 112 c 0 1.109375 -0.890625 2 -2 2 h -24 c -1.109375 0 -2 -0.890625 -2 -2 z m 0 0" fill="#c0bfbc"/>
    <g clip-path="url(#f)" mask="url(#d)" transform="matrix(1 0 0 1 -8 -16)">
        <path d="m 28 34 h 88 c 1.105469 0 2 0.894531 2 2 v 66 c 0 1.105469 -0.894531 2 -2 2 h -88 c -1.105469 0 -2 -0.894531 -2 -2 v -66 c 0 -1.105469 0.894531 -2 2 -2 z m 0 0" fill="url(#e)"/>
    </g>
    <g clip-path="url(#h)" mask="url(#g)" transform="matrix(1 0 0 1 -8 -16)">
        <path d="m 104 40 c -0.53125 0 -1.039062 0.210938 -1.414062 0.585938 l -8 8 c -0.78125 0.78125 -0.78125 2.046874 0 2.828124 s 2.046874 0.78125 2.828124 0 l 4.585938 -4.585937 v 48.171875 l -4.585938 -4.585938 c -0.78125 -0.78125 -2.046874 -0.78125 -2.828124 0 s -0.78125 2.046876 0 2.828126 l 8 8.171874 c 0.390624 0.390626 0.902343 0.585938 1.414062 0.585938 s 1.023438 -0.195312 1.414062 -0.585938 l 8 -8.171874 c 0.78125 -0.78125 0.78125 -2.046876 0 -2.828126 s -2.046874 -0.78125 -2.828124 0 l -4.585938 4.585938 v -48.171875 l 4.585938 4.585937 c 0.78125 0.78125 2.046874 0.78125 2.828124 0 s 0.78125 -2.046874 0 -2.828124 l -8 -8 c -0.375 -0.375 -0.882812 -0.585938 -1.414062 -0.585938 z m 0 0"/>
    </g>
    <path d="m 96 22 c -0.53125 0 -1.039062 0.210938 -1.414062 0.585938 l -8 8 c -0.78125 0.78125 -0.78125 2.046874 0 2.828124 s 2.046874 0.78125 2.828124 0 l 4.585938 -4.585937 v 48.171875 l -4.585938 -4.585938 c -0.78125 -0.78125 -2.046874 -0.78125 -2.828124 0 s -0.78125 2.046876 0 2.828126 l 8 8.171874 c 0.390624 0.390626 0.902343 0.585938 1.414062 0.585938 s 1.023438 -0.195312 1.414062 -0.585938 l 8 -8.171874 c 0.78125 -0.78125 0.78125 -2.046876 0 -2.828126 s -2.046874 -0.78125 -2.828124 0 l -4.585938 4.585938 v -48.171875 l 4.585938 4.585937 c 0.78125 0.78125 2.046874 0.78125 2.828124 0 s 0.78125 -2.046874 0 -2.828124 l -8 -8 c -0.375 -0.375 -0.882812 -0.585938 -1.414062 -0.585938 z m 0 0" fill="#f6f5f4"/>
</svg>
