<?xml version="1.0" encoding="UTF-8"?>
<svg height="128px" viewBox="0 0 128 128" width="128px" xmlns="http://www.w3.org/2000/svg" xmlns:xlink="http://www.w3.org/1999/xlink">
    <linearGradient id="a" gradientUnits="userSpaceOnUse">
        <stop offset="0" stop-color="#241f31"/>
        <stop offset="0.0357143" stop-color="#5e5c64"/>
        <stop offset="0.0713653" stop-color="#241f31"/>
        <stop offset="0.928571" stop-color="#241f31"/>
        <stop offset="0.964286" stop-color="#5e5c64"/>
        <stop offset="1" stop-color="#241f31"/>
    </linearGradient>
    <linearGradient id="b" x1="88.0000305" x2="40" xlink:href="#a" y1="119.99999275" y2="119.99999275"/>
    <linearGradient id="c" x1="120.00000025" x2="8.000004" xlink:href="#a" y1="95.99999225" y2="95.99999225"/>
    <linearGradient id="d" gradientUnits="userSpaceOnUse" x1="76.0000305" x2="52.0000305" y1="110.0000005" y2="110.0000005">
        <stop offset="0" stop-color="#241f31"/>
        <stop offset="0.0357143"/>
        <stop offset="0.0713653" stop-color="#241f31"/>
        <stop offset="0.928571" stop-color="#241f31"/>
        <stop offset="0.964286"/>
        <stop offset="1" stop-color="#241f31"/>
    </linearGradient>
    <filter id="e" height="100%" width="100%" x="0%" y="0%">
        <feColorMatrix in="SourceGraphic" type="matrix" values="0 0 0 0 1 0 0 0 0 1 0 0 0 0 1 0 0 0 1 0"/>
    </filter>
    <mask id="f">
        <g filter="url(#e)">
            <rect fill-opacity="0.3" height="128" width="128"/>
        </g>
    </mask>
    <clipPath id="g">
        <rect height="152" width="192"/>
    </clipPath>
    <mask id="h">
        <g filter="url(#e)">
            <rect fill-opacity="0.3" height="128" width="128"/>
        </g>
    </mask>
    <clipPath id="i">
        <rect height="152" width="192"/>
    </clipPath>
    <radialGradient id="j" cx="25.24371" cy="193.839157" gradientTransform="matrix(1.208333 1.166667 -2.537621 2.628251 481.387421 -516.908844)" gradientUnits="userSpaceOnUse" r="48">
        <stop offset="0" stop-color="#f66151"/>
        <stop offset="1" stop-color="#9141ac"/>
    </radialGradient>
    <mask id="k">
        <g filter="url(#e)">
            <rect fill-opacity="0.1" height="128" width="128"/>
        </g>
    </mask>
    <radialGradient id="l" cx="-28.559336" cy="-433.736725" gradientTransform="matrix(4.136364 -0.00000036 0 1.090909 186.131805 571.167297)" gradientUnits="userSpaceOnUse" r="44">
        <stop offset="0" stop-color="#ffffff"/>
        <stop offset="1" stop-color="#ffffff" stop-opacity="0.094118"/>
    </radialGradient>
    <clipPath id="m">
        <rect height="152" width="192"/>
    </clipPath>
    <mask id="n">
        <g filter="url(#e)">
            <rect fill-opacity="0.3" height="128" width="128"/>
        </g>
    </mask>
    <clipPath id="o">
        <rect height="152" width="192"/>
    </clipPath>
    <path d="m 44 48 c -2.214844 0 -4 1.785156 -4 4 v 64 c 0 2.214844 1.785156 4 4 4 h 40 c 2.214844 0 4 -1.785156 4 -4 v -64 c 0 -2.214844 -1.785156 -4 -4 -4 z m 20 36 c 6.628906 0 12 5.371094 12 12 s -5.371094 12 -12 12 s -12 -5.371094 -12 -12 s 5.371094 -12 12 -12 z m 0 0" fill="url(#b)"/>
    <path d="m 44 44 c -2.214844 0 -4 1.785156 -4 4 v 66 c 0 2.214844 1.785156 4 4 4 h 40 c 2.214844 0 4 -1.785156 4 -4 v -66 c 0 -2.214844 -1.785156 -4 -4 -4 z m 20 40 c 6.628906 0 12 5.371094 12 12 s -5.371094 12 -12 12 s -12 -5.371094 -12 -12 s 5.371094 -12 12 -12 z m 0 0" fill="#3d3846"/>
    <path d="m 16 20 h 96 c 4.417969 0 8 3.582031 8 8 v 60 c 0 4.417969 -3.582031 8 -8 8 h -96 c -4.417969 0 -8 -3.582031 -8 -8 v -60 c 0 -4.417969 3.582031 -8 8 -8 z m 0 0" fill="url(#c)"/>
    <path d="m 16 8 h 96 c 4.417969 0 8 3.582031 8 8 v 68 c 0 4.417969 -3.582031 8 -8 8 h -96 c -4.417969 0 -8 -3.582031 -8 -8 v -68 c 0 -4.417969 3.582031 -8 8 -8 z m 0 0" fill="#3d3846"/>
    <path d="m 75.941406 96.824219 c -0.433594 6.28125 -5.644531 11.160156 -11.941406 11.175781 c -6.226562 -0.015625 -11.410156 -4.792969 -11.925781 -11 c -0.039063 0.332031 -0.0625 0.664062 -0.074219 1 c 0 6.628906 5.371094 12 12 12 s 12 -5.371094 12 -12 c 0 -0.394531 -0.019531 -0.785156 -0.058594 -1.175781 z m 0 0" fill="url(#d)"/>
    <g clip-path="url(#g)" mask="url(#f)" transform="matrix(1 0 0 1 -8 -16)">
        <path d="m 48 112 h 12 v 4 h -12 z m 0 0"/>
    </g>
    <g clip-path="url(#i)" mask="url(#h)" transform="matrix(1 0 0 1 -8 -16)">
        <path d="m 84 112 h 12 v 4 h -12 z m 0 0"/>
    </g>
    <path d="m 16 12 h 96 c 2.210938 0 4 1.789062 4 4 v 64 c 0 2.210938 -1.789062 4 -4 4 h -96 c -2.210938 0 -4 -1.789062 -4 -4 v -64 c 0 -2.210938 1.789062 -4 4 -4 z m 0 0" fill="url(#j)"/>
    <g clip-path="url(#m)" mask="url(#k)" transform="matrix(1 0 0 1 -8 -16)">
        <path d="m 26 30 h 92 c 2.210938 0 4 1.789062 4 4 v 60 c 0 2.210938 -1.789062 4 -4 4 h -92 c -2.210938 0 -4 -1.789062 -4 -4 v -60 c 0 -2.210938 1.789062 -4 4 -4 z m 0 0" fill="url(#l)"/>
    </g>
    <g clip-path="url(#o)" mask="url(#n)" transform="matrix(1 0 0 1 -8 -16)">
        <path d="m 120 88 c 0 -0.53125 -0.210938 -1.039062 -0.585938 -1.414062 l -8 -8 c -0.78125 -0.78125 -2.046874 -0.78125 -2.828124 0 s -0.78125 2.046874 0 2.828124 l 4.585937 4.585938 h -82.171875 l 4.585938 -4.585938 c 0.78125 -0.78125 0.78125 -2.046874 0 -2.828124 s -2.046876 -0.78125 -2.828126 0 l -8.171874 8 c -0.390626 0.390624 -0.585938 0.902343 -0.585938 1.414062 s 0.195312 1.023438 0.585938 1.414062 l 8.171874 8 c 0.78125 0.78125 2.046876 0.78125 2.828126 0 s 0.78125 -2.046874 0 -2.828124 l -4.585938 -4.585938 h 82.171875 l -4.585937 4.585938 c -0.78125 0.78125 -0.78125 2.046874 0 2.828124 s 2.046874 0.78125 2.828124 0 l 8 -8 c 0.375 -0.375 0.585938 -0.882812 0.585938 -1.414062 z m 0 0"/>
    </g>
    <path d="m 112 70 c 0 -0.53125 -0.210938 -1.039062 -0.585938 -1.414062 l -8 -8 c -0.78125 -0.78125 -2.046874 -0.78125 -2.828124 0 s -0.78125 2.046874 0 2.828124 l 4.585937 4.585938 h -82.171875 l 4.585938 -4.585938 c 0.78125 -0.78125 0.78125 -2.046874 0 -2.828124 s -2.046876 -0.78125 -2.828126 0 l -8.171874 8 c -0.390626 0.390624 -0.585938 0.902343 -0.585938 1.414062 s 0.195312 1.023438 0.585938 1.414062 l 8.171874 8 c 0.78125 0.78125 2.046876 0.78125 2.828126 0 s 0.78125 -2.046874 0 -2.828124 l -4.585938 -4.585938 h 82.171875 l -4.585937 4.585938 c -0.78125 0.78125 -0.78125 2.046874 0 2.828124 s 2.046874 0.78125 2.828124 0 l 8 -8 c 0.375 -0.375 0.585938 -0.882812 0.585938 -1.414062 z m 0 0" fill="#f6f5f4"/>
</svg>
