<?xml version="1.0" encoding="UTF-8" standalone="no"?>
<svg
   xmlns:dc="http://purl.org/dc/elements/1.1/"
   xmlns:cc="http://creativecommons.org/ns#"
   xmlns:rdf="http://www.w3.org/1999/02/22-rdf-syntax-ns#"
   xmlns:svg="http://www.w3.org/2000/svg"
   xmlns="http://www.w3.org/2000/svg"
   xmlns:xlink="http://www.w3.org/1999/xlink"
   xmlns:sodipodi="http://sodipodi.sourceforge.net/DTD/sodipodi-0.dtd"
   xmlns:inkscape="http://www.inkscape.org/namespaces/inkscape"
   version="1.0"
   width="64"
   height="64"
   id="svg4569"
   inkscape:version="0.91 r13725"
   sodipodi:docname="com.github.cassidyjames.dippi.svg">
  <sodipodi:namedview
     pagecolor="#ffffff"
     bordercolor="#666666"
     borderopacity="1"
     objecttolerance="10"
     gridtolerance="10"
     guidetolerance="10"
     inkscape:pageopacity="0"
     inkscape:pageshadow="2"
     inkscape:window-width="1920"
     inkscape:window-height="1017"
     id="namedview49"
     showgrid="true"
     inkscape:zoom="7.9999996"
     inkscape:cx="21.515085"
     inkscape:cy="39.403799"
     inkscape:window-x="0"
     inkscape:window-y="30"
     inkscape:window-maximized="1"
     inkscape:current-layer="svg4569">
    <inkscape:grid
       type="xygrid"
       id="grid4212"
       empspacing="4" />
    <inkscape:grid
       type="xygrid"
       id="grid4214"
       empspacing="2"
       spacingx="0.5"
       spacingy="0.5"
       enabled="false" />
  </sodipodi:namedview>
  <metadata
     id="metadata54">
    <rdf:RDF>
      <cc:Work
         rdf:about="">
        <dc:format>image/svg+xml</dc:format>
        <dc:type
           rdf:resource="http://purl.org/dc/dcmitype/StillImage" />
        <dc:title></dc:title>
      </cc:Work>
    </rdf:RDF>
  </metadata>
  <defs
     id="defs4571">
    <linearGradient
       inkscape:collect="always"
       id="linearGradient4188">
      <stop
         style="stop-color:#d4d4d4;stop-opacity:1"
         offset="0"
         id="stop4190" />
      <stop
         style="stop-color:#fafafa;stop-opacity:1"
         offset="1"
         id="stop4192" />
    </linearGradient>
    <linearGradient
       id="linearGradient4084">
      <stop
         offset="0"
         style="stop-color:#ffffff;stop-opacity:1"
         id="stop4086" />
      <stop
         offset="0.01596775"
         style="stop-color:#ffffff;stop-opacity:0.23529412"
         id="stop4088" />
      <stop
         offset="0.99257565"
         style="stop-color:#ffffff;stop-opacity:0.15686275"
         id="stop4090" />
      <stop
         offset="1"
         style="stop-color:#ffffff;stop-opacity:0.39215687"
         id="stop4092" />
    </linearGradient>
    <linearGradient
       id="linearGradient3912">
      <stop
         id="stop3914"
         style="stop-color:#273445;stop-opacity:1"
         offset="0" />
      <stop
         id="stop3916"
         style="stop-color:#667885;stop-opacity:1"
         offset="0.35046947" />
      <stop
         id="stop3918"
         style="stop-color:#95a3ab;stop-opacity:1"
         offset="0.49417919" />
      <stop
         id="stop3920"
         style="stop-color:#667885;stop-opacity:1"
         offset="0.58907253" />
      <stop
         id="stop3922"
         style="stop-color:#485a6c;stop-opacity:1"
         offset="1" />
    </linearGradient>
    <linearGradient
       id="linearGradient10691-1">
      <stop
         id="stop10693-3"
         style="stop-color:#000000;stop-opacity:1"
         offset="0" />
      <stop
         id="stop10695-1"
         style="stop-color:#000000;stop-opacity:0"
         offset="1" />
    </linearGradient>
    <linearGradient
       x1="361.10583"
       y1="87.050117"
       x2="361.10583"
       y2="94.396416"
       id="linearGradient2451"
       xlink:href="#linearGradient3912"
       gradientUnits="userSpaceOnUse"
       gradientTransform="matrix(1.3111548,0,0,1.3337028,-437.61398,-66.532889)" />
    <radialGradient
       cx="6.702713"
       cy="73.615715"
       r="7.228416"
       fx="6.702713"
       fy="73.615715"
       id="radialGradient2456"
       xlink:href="#linearGradient10691-1"
       gradientUnits="userSpaceOnUse"
       gradientTransform="matrix(2.5824009,0,0,0.5533716,14.690909,17.92982)" />
    <linearGradient
       id="outerBackgroundGradient-5-0">
      <stop
         id="stop3864-8-6-4"
         offset="0"
         style="stop-color:#261e2b;stop-opacity:1;" />
      <stop
         id="stop3866-9-1-86"
         offset="1"
         style="stop-color:#352f39;stop-opacity:1;" />
    </linearGradient>
    <linearGradient
       id="linearGradient3880">
      <stop
         id="stop3883"
         offset="0"
         style="stop-color:#ffffff;stop-opacity:1;" />
      <stop
         id="stop3885"
         offset="1"
         style="stop-color:#ffffff;stop-opacity:0;" />
    </linearGradient>
    <linearGradient
       xlink:href="#linearGradient3880"
       id="linearGradient3141"
       gradientUnits="userSpaceOnUse"
       gradientTransform="matrix(1.5500003,0,0,1.5555554,-0.55000582,17.444445)"
       x1="10"
       y1="-3"
       x2="20"
       y2="12" />
    <linearGradient
       xlink:href="#linearGradient4084"
       id="linearGradient3144"
       gradientUnits="userSpaceOnUse"
       gradientTransform="matrix(1.6486489,0,0,1.135135,-7.5675799,-0.74323082)"
       x1="23.99999"
       y1="5.7531762"
       x2="23.99999"
       y2="42.121033" />
    <linearGradient
       xlink:href="#outerBackgroundGradient-5-0"
       id="linearGradient3148"
       gradientUnits="userSpaceOnUse"
       gradientTransform="matrix(1.4000003,0,0,1.5652174,2.5999953,21.02178)"
       x1="15"
       y1="24.618645"
       x2="15"
       y2="2" />
    <linearGradient
       xlink:href="#linearGradient4054-5"
       id="linearGradient3152-7"
       gradientUnits="userSpaceOnUse"
       gradientTransform="matrix(1.2162163,0,0,0.83783786,2.6663586,14.977385)"
       x1="25.004524"
       y1="51.07592"
       x2="25.004524"
       y2="40.265266" />
    <linearGradient
       id="linearGradient4054-5">
      <stop
         offset="0"
         style="stop-color:#ffffff;stop-opacity:1"
         id="stop4056-0" />
      <stop
         offset="0.06316455"
         style="stop-color:#ffffff;stop-opacity:0.23529412"
         id="stop4058-4" />
      <stop
         offset="0.96892834"
         style="stop-color:#ffffff;stop-opacity:0.15686275"
         id="stop4060-4" />
      <stop
         offset="1"
         style="stop-color:#ffffff;stop-opacity:0.39215687"
         id="stop4062-0" />
    </linearGradient>
    <linearGradient
       id="outerBackgroundGradient-5-0-4">
      <stop
         id="stop3864-8-6-4-3"
         offset="0"
         style="stop-color:#261e2b;stop-opacity:1;" />
      <stop
         id="stop3866-9-1-86-8"
         offset="1"
         style="stop-color:#352f39;stop-opacity:1;" />
    </linearGradient>
    <linearGradient
       y2="2"
       x2="15"
       y1="24.618645"
       x1="15"
       gradientTransform="matrix(1.3500003,0,0,1.4782609,3.6499947,21.326128)"
       gradientUnits="userSpaceOnUse"
       id="linearGradient4109"
       xlink:href="#outerBackgroundGradient-5-0-4" />
    <linearGradient
       x1="186.54022"
       y1="17.585598"
       x2="173.70163"
       y2="39.744339"
       id="linearGradient3833"
       xlink:href="#linearGradient3880"
       gradientUnits="userSpaceOnUse"
       gradientTransform="matrix(-2.9598255,0,0,1.8502855,581.1265,-22.538376)" />
    <linearGradient
       x1="182"
       y1="33"
       x2="182"
       y2="24.519934"
       id="linearGradient3830"
       xlink:href="#linearGradient3880"
       gradientUnits="userSpaceOnUse"
       gradientTransform="matrix(-1.6969746,0,0,1.6969746,353.57218,-16.985399)" />
    <linearGradient
       inkscape:collect="always"
       xlink:href="#linearGradient4188"
       id="linearGradient4194"
       x1="16"
       y1="64"
       x2="16"
       y2="24"
       gradientUnits="userSpaceOnUse" />
  </defs>
  <g
     id="g4276">
    <g
       id="g4218">
      <path
         inkscape:connector-curvature="0"
         d="m 50.666665,58.666665 c 0,2.20914 -8.357351,4 -18.666667,4 -10.309315,0 -18.666665,-1.79086 -18.666665,-4 0,-2.209138 8.35735,-4 18.666665,-4 10.309316,0 18.666667,1.790862 18.666667,4 l 0,0 z"
         id="path2589"
         style="display:inline;overflow:visible;visibility:visible;opacity:0.3;fill:url(#radialGradient2456);fill-opacity:1;fill-rule:nonzero;stroke:none;stroke-width:0.80000001;marker:none" />
      <path
         inkscape:connector-curvature="0"
         d="m 23.919786,48.499137 c 0,0 0.186555,5.677784 -0.743925,7.001192 -0.93048,1.323409 -2.781966,1.338846 -2.781966,1.338846 -1.188092,0.139034 -1.19792,2.661687 0,2.661687 l 23.212115,0 c 1.197921,0 1.188341,-2.524427 0,-2.661687 0,0 -1.851406,-0.01544 -2.781873,-1.338846 -0.930466,-1.323405 -0.744017,-7.001192 -0.744017,-7.001192 l -16.160334,0 0,0 z"
         id="rect1789"
         style="display:inline;overflow:visible;visibility:visible;fill:url(#linearGradient2451);fill-opacity:1;fill-rule:nonzero;stroke:none;stroke-width:0.99827456;stroke-linecap:round;stroke-linejoin:round;stroke-miterlimit:4;stroke-dasharray:none;stroke-dashoffset:0.5;stroke-opacity:1;marker:none;enable-background:new" />
      <rect
         width="62.99976"
         height="43.99968"
         rx="1.4000021"
         ry="1.3333333"
         x="0.50011969"
         y="4.5002007"
         id="rect2722"
         style="fill:#1a1a1a;fill-opacity:1;stroke:#000000;stroke-width:1.00023937;stroke-linecap:round;stroke-linejoin:round;stroke-miterlimit:4;stroke-dasharray:none;stroke-dashoffset:0.5;stroke-opacity:1" />
      <path
         inkscape:connector-curvature="0"
         style="display:inline;fill:url(#linearGradient4194);fill-opacity:1;stroke:none"
         d="m 3.9999997,8.5000405 55.9999993,0 0,36.0000005 -55.9999993,0 z"
         id="rect2722-0" />
      <path
         inkscape:connector-curvature="0"
         style="display:inline;opacity:0.1;fill:#000000;fill-opacity:1;stroke:none"
         d="m 4,8.5 0,36 56,0 0,-36 -56,0 z m 1,1 54,0 0,34 -54,0 0,-34 z"
         id="path3942" />
      <rect
         width="61.000004"
         height="42"
         rx="0"
         ry="0"
         x="1.5"
         y="5.5"
         id="rect6741"
         style="opacity:0.2;fill:none;stroke:url(#linearGradient3144);stroke-width:0.99999988;stroke-linecap:round;stroke-linejoin:round;stroke-miterlimit:4;stroke-dasharray:none;stroke-dashoffset:0;stroke-opacity:1" />
      <path
         inkscape:connector-curvature="0"
         d="m 23.919786,48.499137 c 0,0 0.186555,5.677784 -0.743925,7.001192 -0.93048,1.323409 -2.781966,1.338846 -2.781966,1.338846 -1.188092,0.139034 -1.19792,2.661687 0,2.661687 l 23.212115,0 c 1.197921,0 1.188341,-2.524427 0,-2.661687 0,0 -1.851406,-0.01544 -2.781873,-1.338846 -0.930466,-1.323405 -0.744017,-7.001192 -0.744017,-7.001192 l -16.160334,0 0,0 z"
         id="rect1789-9"
         style="color:#000000;display:inline;overflow:visible;visibility:visible;opacity:0.4;fill:none;fill-opacity:1;fill-rule:nonzero;stroke:#000000;stroke-width:0.99827462;stroke-linecap:round;stroke-linejoin:round;stroke-miterlimit:4;stroke-dasharray:none;stroke-dashoffset:0.5;stroke-opacity:1;marker:none;enable-background:new" />
      <path
         inkscape:connector-curvature="0"
         style="color:#000000;display:inline;overflow:visible;visibility:visible;opacity:0.3;fill:none;stroke:url(#linearGradient3152-7);stroke-width:0.99999994;stroke-linecap:round;stroke-linejoin:round;stroke-miterlimit:4;stroke-dasharray:none;stroke-dashoffset:0;stroke-opacity:1;marker:none;enable-background:accumulate"
         id="path4043"
         d="m 24.90625,49.5 c 0.01129,0.552305 0.04325,0.949789 0,2.03125 C 24.873643,52.346505 24.8079,53.220881 24.6875,54 24.5671,54.779119 24.435885,55.442547 24,56.0625 c -1.193603,1.697645 -3.115921,1.748832 -3.40625,1.75 -0.03548,0.06074 -0.09343,0.236278 -0.09375,0.40625 -2.61e-4,0.137285 0.04053,0.22439 0.0625,0.28125 l 22.875,0 C 43.45954,58.44296 43.50025,58.356154 43.5,58.21875 43.499685,58.048631 43.44158,57.872959 43.40625,57.8125 43.11592,57.811332 41.193593,57.760151 40,56.0625 39.564121,55.442548 39.432899,54.779118 39.3125,54 c -0.120399,-0.779118 -0.186142,-1.653495 -0.21875,-2.46875 -0.04326,-1.081461 -0.01129,-1.478945 0,-2.03125 l -14.1875,0 z m 18.5,8.3125 c -0.03533,-0.06046 0.01418,0.02567 0.0625,0.03125 l 0,-0.03125 c -0.005,3.2e-5 -0.0552,2.9e-5 -0.0625,0 z m -22.8125,0 c -0.0073,2.9e-5 -0.05749,3.2e-5 -0.0625,0 -3.58e-4,-2e-6 3.46e-4,0.03125 0,0.03125 0.04802,-0.0056 0.09798,-0.09199 0.0625,-0.03125 z" />
    </g>
    <g
       id="g4266">
      <path
         sodipodi:nodetypes="cccccccc"
         d="M 59.5,8.9999292 4.4998766,44 59.5,44 Z M 48.500001,27.5 l 0,8.999959 -14.000147,0 z"
         id="path4236"
         style="color:#000000;display:inline;overflow:visible;visibility:visible;fill:#c6262e;fill-opacity:1;fill-rule:evenodd;stroke:none;stroke-width:1;stroke-linecap:butt;stroke-linejoin:round;stroke-miterlimit:4;stroke-dasharray:none;stroke-dashoffset:0;stroke-opacity:1;marker:none;enable-background:accumulate;opacity:0.9"
         inkscape:connector-curvature="0" />
      <path
         inkscape:connector-curvature="0"
         style="color:#000000;display:inline;overflow:visible;visibility:visible;fill:none;fill-opacity:1;fill-rule:evenodd;stroke:#7a0000;stroke-width:1;stroke-linecap:butt;stroke-linejoin:round;stroke-miterlimit:4;stroke-dasharray:none;stroke-dashoffset:0;stroke-opacity:1;marker:none;enable-background:accumulate"
         id="path3410"
         d="M 59.5,8.9999292 4.4998766,44 59.5,44 Z M 48.500001,27.5 l 0,8.999959 -14.000147,0 z"
         sodipodi:nodetypes="cccccccc" />
      <path
         inkscape:connector-curvature="0"
         style="opacity:0.3;fill:none;stroke:url(#linearGradient3833);stroke-width:1;stroke-linecap:butt;stroke-linejoin:miter;stroke-opacity:1"
         id="path3981"
         d="M 58.500394,10.8125 58.499605,43 7.9634654,43 Z"
         sodipodi:nodetypes="cccc" />
      <path
         inkscape:connector-curvature="0"
         style="opacity:0.3;fill:none;stroke:url(#linearGradient3830);stroke-width:1;stroke-linecap:butt;stroke-linejoin:miter;stroke-opacity:1"
         id="path3981-5"
         d="m 49.5,27 0,10.5 -15.5,0"
         sodipodi:nodetypes="ccc" />
      <path
         style="color:#000000;font-style:normal;font-variant:normal;font-weight:normal;font-stretch:normal;font-size:medium;line-height:normal;font-family:sans-serif;text-indent:0;text-align:start;text-decoration:none;text-decoration-line:none;text-decoration-style:solid;text-decoration-color:#000000;letter-spacing:normal;word-spacing:normal;text-transform:none;direction:ltr;block-progression:tb;writing-mode:lr-tb;baseline-shift:baseline;text-anchor:start;white-space:normal;clip-rule:nonzero;display:inline;overflow:visible;visibility:visible;opacity:0.3;isolation:auto;mix-blend-mode:normal;color-interpolation:sRGB;color-interpolation-filters:linearRGB;solid-color:#000000;solid-opacity:1;fill:#000000;fill-opacity:1;fill-rule:evenodd;stroke:none;stroke-width:1px;stroke-linecap:butt;stroke-linejoin:miter;stroke-miterlimit:4;stroke-dasharray:none;stroke-dashoffset:0;stroke-opacity:1;color-rendering:auto;image-rendering:auto;shape-rendering:auto;text-rendering:auto;enable-background:accumulate"
         d="M 11 41 L 11 43.5 L 12 43.5 L 12 41 L 11 41 z M 14 41 L 14 43.5 L 15 43.5 L 15 41 L 14 41 z M 17 41 L 17 43.5 L 18 43.5 L 18 41 L 17 41 z M 20 41 L 20 43.5 L 21 43.5 L 21 41 L 20 41 z M 23 41 L 23 43.5 L 24 43.5 L 24 41 L 23 41 z M 26 41 L 26 43.5 L 27 43.5 L 27 41 L 26 41 z M 29 41 L 29 43.5 L 30 43.5 L 30 41 L 29 41 z M 32 41 L 32 43.5 L 33 43.5 L 33 41 L 32 41 z M 35 41 L 35 43.5 L 36 43.5 L 36 41 L 35 41 z M 38 41 L 38 43.5 L 39 43.5 L 39 41 L 38 41 z M 41 41 L 41 43.5 L 42 43.5 L 42 41 L 41 41 z M 44 41 L 44 43.5 L 45 43.5 L 45 41 L 44 41 z M 47 41 L 47 43.5 L 48 43.5 L 48 41 L 47 41 z M 50 41 L 50 43.5 L 51 43.5 L 51 41 L 50 41 z M 53 41 L 53 43.5 L 54 43.5 L 54 41 L 53 41 z M 56 41 L 56 43.5 L 57 43.5 L 57 41 L 56 41 z "
         id="path4216" />
      <path
         style="color:#000000;font-style:normal;font-variant:normal;font-weight:normal;font-stretch:normal;font-size:medium;line-height:normal;font-family:sans-serif;text-indent:0;text-align:start;text-decoration:none;text-decoration-line:none;text-decoration-style:solid;text-decoration-color:#000000;letter-spacing:normal;word-spacing:normal;text-transform:none;direction:ltr;block-progression:tb;writing-mode:lr-tb;baseline-shift:baseline;text-anchor:start;white-space:normal;clip-rule:nonzero;display:inline;overflow:visible;visibility:visible;opacity:0.15;isolation:auto;mix-blend-mode:normal;color-interpolation:sRGB;color-interpolation-filters:linearRGB;solid-color:#000000;solid-opacity:1;fill:#ffffff;fill-opacity:1;fill-rule:evenodd;stroke:none;stroke-width:1px;stroke-linecap:butt;stroke-linejoin:miter;stroke-miterlimit:4;stroke-dasharray:none;stroke-dashoffset:0;stroke-opacity:1;color-rendering:auto;image-rendering:auto;shape-rendering:auto;text-rendering:auto;enable-background:accumulate"
         d="M 12 41 L 12 43.5 L 13 43.5 L 13 41 L 12 41 z M 15 41 L 15 43.5 L 16 43.5 L 16 41 L 15 41 z M 18 41 L 18 43.5 L 19 43.5 L 19 41 L 18 41 z M 21 41 L 21 43.5 L 22 43.5 L 22 41 L 21 41 z M 24 41 L 24 43.5 L 25 43.5 L 25 41 L 24 41 z M 27 41 L 27 43.5 L 28 43.5 L 28 41 L 27 41 z M 30 41 L 30 43.5 L 31 43.5 L 31 41 L 30 41 z M 33 41 L 33 43.5 L 34 43.5 L 34 41 L 33 41 z M 36 41 L 36 43.5 L 37 43.5 L 37 41 L 36 41 z M 39 41 L 39 43.5 L 40 43.5 L 40 41 L 39 41 z M 42 41 L 42 43.5 L 43 43.5 L 43 41 L 42 41 z M 45 41 L 45 43.5 L 46 43.5 L 46 41 L 45 41 z M 48 41 L 48 43.5 L 49 43.5 L 49 41 L 48 41 z M 51 41 L 51 43.5 L 52 43.5 L 52 41 L 51 41 z M 54 41 L 54 43.5 L 55 43.5 L 55 41 L 54 41 z M 57 41 L 57 43.5 L 58 43.5 L 58 41 L 57 41 z "
         id="path4257" />
      <path
         id="path4259"
         d="m 57,40.5 2,0 z m 0,-3 2,0 z m 0,-3 2,0 z m 0,-3 2,0 z m 0,-3 2,0 z m 0,-3 2,0 z m 0,-3 2,0 z m 0,-3 2,0 z m 0,-3 2,0 z m 0,-3 2,0 z"
         style="opacity:0.3;fill:none;fill-rule:evenodd;stroke:#000000;stroke-width:1px;stroke-linecap:butt;stroke-linejoin:miter;stroke-opacity:1"
         inkscape:connector-curvature="0"
         sodipodi:nodetypes="cccccccccccccccccccccccccccccc" />
      <path
         inkscape:connector-curvature="0"
         style="opacity:0.15;fill:none;fill-rule:evenodd;stroke:#ffffff;stroke-width:1px;stroke-linecap:butt;stroke-linejoin:miter;stroke-opacity:1"
         d="m 57,41.5 2,0 z m 0,-3 2,0 z m 0,-3 2,0 z m 0,-3 2,0 z m 0,-3 2,0 z m 0,-3 2,0 z m 0,-3 2,0 z m 0,-3 2,0 z m 0,-3 2,0 z m 0,-3 2,0 z"
         id="path4261"
         sodipodi:nodetypes="cccccccccccccccccccccccccccccc" />
    </g>
  </g>
</svg>
